<?xml version="1.0" encoding="utf-8"?>
<!-- Generator: Adobe Illustrator 26.0.1, SVG Export Plug-In . SVG Version: 6.00 Build 0)  -->
<svg version="1.1" id="Layer_1" xmlns="http://www.w3.org/2000/svg" xmlns:xlink="http://www.w3.org/1999/xlink" x="0px" y="0px"
	 viewBox="0 0 343.8 673" style="enable-background:new 0 0 343.8 673;" xml:space="preserve">
<style type="text/css">
	.st0{fill:#50CEF5;}
	.st1{fill:#E6F1FE;}
	.st2{fill:#EFF6FE;}
	.st3{opacity:0.9412;fill:#E8EFF7;enable-background:new    ;}
	.st4{opacity:0.9608;fill:#EBF1F9;enable-background:new    ;}
	.st5{opacity:0.9804;fill:#EDF4FC;enable-background:new    ;}
	.st6{fill:#98A4E0;}
	.st7{fill:#C6D5FA;}
	.st8{clip-path:url(#SVGID_00000001634785384613573050000006203912364141781424_);fill:#C6D5FA;}
	.st9{fill:#DAE8FD;}
	.st10{clip-path:url(#SVGID_00000047052895035127994810000000819774333415691930_);fill:#DAE8FD;}
	.st11{fill:#1499FC;}
	.st12{clip-path:url(#SVGID_00000014613349642415489900000006504725065157188248_);fill:#CDDCFB;}
	.st13{clip-path:url(#SVGID_00000014613349642415489900000006504725065157188248_);fill:#D4E2FC;}
	.st14{clip-path:url(#SVGID_00000079448184320493862010000011567492252051808401_);fill:#C6D5FA;}
	.st15{clip-path:url(#SVGID_00000032628529277880237860000012929705133248350138_);fill:#DAE8FD;}
	.st16{clip-path:url(#SVGID_00000175313671581215460390000002833926667761869468_);fill:#CDDCFB;}
	.st17{clip-path:url(#SVGID_00000175313671581215460390000002833926667761869468_);fill:#D4E2FC;}
	.st18{clip-path:url(#SVGID_00000088837215622137163380000010307236957007466938_);fill:#C6D5FA;}
	.st19{clip-path:url(#SVGID_00000036237990907847152980000006734054293253731768_);fill:#DAE8FD;}
	.st20{clip-path:url(#SVGID_00000163030423689727464220000011480106545303203715_);fill:#CDDCFB;}
	.st21{clip-path:url(#SVGID_00000163030423689727464220000011480106545303203715_);fill:#D4E2FC;}
	.st22{clip-path:url(#SVGID_00000012453465322863349910000008176967165704059543_);fill:#C6D5FA;}
	.st23{clip-path:url(#SVGID_00000054958170188261918140000003984899544314625963_);fill:#DAE8FD;}
	.st24{clip-path:url(#SVGID_00000085965133889563721570000000128591247507762354_);fill:#CDDCFB;}
	.st25{clip-path:url(#SVGID_00000085965133889563721570000000128591247507762354_);fill:#D4E2FC;}
	.st26{clip-path:url(#SVGID_00000025422928859494194110000007878124511047577000_);fill:#C6D5FA;}
	.st27{clip-path:url(#SVGID_00000148655086647244467820000000521075147355991230_);fill:#DAE8FD;}
	.st28{clip-path:url(#SVGID_00000115493135913229743960000001732064712495218087_);fill:#CDDCFB;}
	.st29{clip-path:url(#SVGID_00000115493135913229743960000001732064712495218087_);fill:#D4E2FC;}
	.st30{clip-path:url(#SVGID_00000017512772025662698840000002214889865269211576_);fill:#C6D5FA;}
	.st31{clip-path:url(#SVGID_00000052810384106553594970000009304189804062748048_);fill:#DAE8FD;}
	.st32{clip-path:url(#SVGID_00000000914224242271435670000000772198911030297222_);fill:#CDDCFB;}
	.st33{clip-path:url(#SVGID_00000000914224242271435670000000772198911030297222_);fill:#D4E2FC;}
	.st34{opacity:0.8333;fill:#DCE2E9;enable-background:new    ;}
	.st35{fill:#7F7F7F;fill-opacity:0;}
	.st36{opacity:0.1667;fill:#929394;enable-background:new    ;}
	.st37{opacity:0.3333;fill:#A4A7A9;enable-background:new    ;}
	.st38{opacity:0.5;fill:#B7BBBF;enable-background:new    ;}
	.st39{opacity:0.6667;fill:#CACED4;enable-background:new    ;}
	.st40{fill:#BECEF9;}
	.st41{clip-path:url(#SVGID_00000090982458664717704950000005748779735150884277_);fill:#BECEF9;}
	.st42{clip-path:url(#SVGID_00000179633468759993713930000018017944586313500331_);fill:#BECEF9;}
	.st43{clip-path:url(#SVGID_00000165195734565146000840000016916637084110133688_);fill:#BECEF9;}
	.st44{clip-path:url(#SVGID_00000029750867511909467050000006325422021308204214_);fill:#BECEF9;}
	.st45{clip-path:url(#SVGID_00000027592829046223194130000016313510033406592692_);fill:#BECEF9;}
	.st46{clip-path:url(#SVGID_00000143613895630445900580000010991842827884771500_);fill:#BECEF9;}
	.st47{clip-path:url(#SVGID_00000059286632975946096940000012359674026422727302_);fill:#BECEF9;}
	.st48{clip-path:url(#SVGID_00000149367056572743137580000005834297993939376540_);fill:#BECEF9;}
	.st49{clip-path:url(#SVGID_00000036219642197887829040000007556182418519680434_);fill:#BECEF9;}
	.st50{clip-path:url(#SVGID_00000010995373454708825300000012150548285843038910_);fill:#BECEF9;}
	.st51{clip-path:url(#SVGID_00000120536436851741094060000000519446417954893194_);fill:#BECEF9;}
	.st52{clip-path:url(#SVGID_00000011744885458282958530000014894577643603762618_);fill:#BECEF9;}
	.st53{fill:#15D9FD;}
	.st54{opacity:0.3;fill:#EFF6FE;enable-background:new    ;}
	.st55{opacity:0.7;fill:#EFF6FE;enable-background:new    ;}
</style>
<polygon class="st0" points="135.5,638.2 135.3,638.1 89.3,611.4 89.7,610.7 135.5,637.2 286.4,550.1 231.1,518.2 231.6,517.4 
	288.1,550.1 287.5,550.5 "/>
<rect x="99.2" y="609.8" transform="matrix(0.4992 -0.8665 0.8665 0.4992 -479.2719 392.1998)" class="st0" width="0.9" height="1.8"/>
<path class="st0" d="M143,636.3l-3.1-1.8l0.4-0.8l3.1,1.8L143,636.3z M136.9,632.7l-3.1-1.7l0.4-0.8l3.1,1.8L136.9,632.7z
	 M130.7,629.2l-3.1-1.8l0.4-0.8l3.1,1.8L130.7,629.2z M124.6,625.7l-3.1-1.8l0.4-0.8l3.1,1.8L124.6,625.7z M118.5,622.2l-3.1-1.8
	l0.4-0.8l3.1,1.8L118.5,622.2z M112.4,618.6l-3.1-1.8l0.4-0.8l3.1,1.8L112.4,618.6z M106.3,615.1l-3.1-1.8l0.4-0.8l3.1,1.8
	L106.3,615.1z"/>
<polygon class="st0" points="147.8,639 146.1,638 146.5,637.3 147.8,638 149.1,637.3 149.5,638 "/>
<path class="st0" d="M152.5,636.3l-0.4-0.8l3-1.7l0.4,0.8L152.5,636.3z M158.5,632.9l-0.4-0.8l3-1.7l0.4,0.8L158.5,632.9z
	 M164.4,629.4l-0.4-0.8l3-1.7l0.4,0.8L164.4,629.4z M170.4,626l-0.4-0.8l3-1.7l0.4,0.8L170.4,626z M176.4,622.5l-0.4-0.8l3-1.7
	l0.4,0.8L176.4,622.5z M182.3,619.1l-0.4-0.8l3-1.7l0.4,0.8L182.3,619.1z M188.3,615.7l-0.4-0.8l3-1.7l0.4,0.8L188.3,615.7z
	 M194.3,612.2l-0.4-0.8l3-1.7l0.4,0.8L194.3,612.2z M200.2,608.8l-0.4-0.8l3-1.7l0.4,0.8L200.2,608.8z M206.2,605.3l-0.4-0.8l3-1.7
	l0.4,0.8L206.2,605.3z M212.1,601.9l-0.4-0.8l3-1.7l0.4,0.8L212.1,601.9z M218.1,598.5l-0.4-0.8l3-1.7l0.4,0.8L218.1,598.5z"/>
<polygon class="st0" points="224.1,595 223.6,594.3 224.5,593.7 223.6,593.2 224.1,592.5 226.2,593.8 "/>
<path class="st0" d="M220.5,591.4l-3.1-1.8l0.4-0.8l3.1,1.9L220.5,591.4z M214.2,587.7l-3.1-1.9l0.4-0.8l3.1,1.9L214.2,587.7z
	 M208,584l-3.1-1.8l0.4-0.8l3.1,1.9L208,584z M201.7,580.3l-3.1-1.8l0.4-0.8l3.1,1.8L201.7,580.3z M195.5,576.6l-3.1-1.8l0.4-0.8
	l3.1,1.8L195.5,576.6z M189.2,572.9l-3.1-1.9l0.4-0.8l3.1,1.9L189.2,572.9z M183,569.2l-3.1-1.8l0.4-0.8l3.1,1.9L183,569.2z
	 M176.7,565.5l-3.1-1.9l0.4-0.8l3.1,1.9L176.7,565.5z M170.5,561.8l-3.1-1.8l0.4-0.8l3.1,1.8L170.5,561.8z"/>
<rect x="163.3" y="556.3" transform="matrix(0.5094 -0.8605 0.8605 0.5094 -399.142 414.254)" class="st0" width="0.9" height="1.8"/>
<rect x="157.5" y="559.6" transform="matrix(0.5085 -0.861 0.861 0.5085 -404.9275 411.4886)" class="st0" width="0.9" height="1.8"/>
<path class="st0" d="M204.9,588.7L202,587l0.4-0.8l2.9,1.7L204.9,588.7z M199.1,585.3l-2.9-1.7l0.4-0.8l2.9,1.7L199.1,585.3z
	 M193.3,581.9l-2.9-1.7l0.4-0.8l2.9,1.7L193.3,581.9z M187.5,578.4l-2.9-1.7l0.4-0.8l2.9,1.7L187.5,578.4z M181.7,575l-2.9-1.7
	l0.4-0.8l2.9,1.7L181.7,575z M175.9,571.6l-2.9-1.7l0.4-0.8l2.9,1.7L175.9,571.6z M170.1,568.2l-2.9-1.7l0.4-0.8l2.9,1.7
	L170.1,568.2z M164.4,564.8l-2.9-1.7l0.4-0.8l2.9,1.7L164.4,564.8z"/>
<polygon class="st0" points="209.5,591.4 207.8,590.4 208.2,589.6 209.5,590.4 210.8,589.6 211.2,590.4 "/>
<path class="st0" d="M214.3,588.6l-0.4-0.8l3-1.8l0.4,0.8L214.3,588.6z M220.3,585l-0.4-0.8l3-1.8l0.4,0.8L220.3,585z M226.3,581.5
	l-0.4-0.8l3-1.8l0.4,0.8L226.3,581.5z M232.4,577.9l-0.4-0.8l3-1.8l0.4,0.8L232.4,577.9z M238.4,574.3l-0.4-0.8l3-1.8l0.4,0.8
	L238.4,574.3z M244.4,570.8L244,570l3-1.8l0.4,0.8L244.4,570.8z M250.5,567.2l-0.4-0.8l3-1.8l0.4,0.8L250.5,567.2z M256.5,563.6
	l-0.4-0.8l3-1.8l0.4,0.8L256.5,563.6z M262.5,560.1l-0.4-0.8l3-1.8l0.4,0.8L262.5,560.1z M268.6,556.5l-0.4-0.8l3-1.8l0.4,0.8
	L268.6,556.5z M274.6,552.9l-0.4-0.8l3-1.8l0.4,0.8L274.6,552.9z M280.6,549.3l-0.4-0.8l3-1.8l0.4,0.8L280.6,549.3z"/>
<polygon class="st0" points="286.7,545.8 286.2,545 287.1,544.5 286.2,544 286.6,543.2 288.8,544.5 "/>
<path class="st0" d="M283.1,542.3l-3.1-1.8l0.4-0.8l3.1,1.8L283.1,542.3z M276.9,538.8l-3.1-1.8l0.4-0.8l3.1,1.8L276.9,538.8z
	 M270.8,535.3l-3.1-1.8l0.4-0.8l3.1,1.8L270.8,535.3z M264.6,531.7l-3.1-1.8l0.4-0.8l3.1,1.8L264.6,531.7z M258.4,528.2l-3.1-1.8
	l0.4-0.8l3.1,1.8L258.4,528.2z M252.2,524.7l-3.1-1.8l0.4-0.8l3.1,1.8L252.2,524.7z M246.1,521.2l-3.1-1.8l0.4-0.8l3.1,1.8
	L246.1,521.2z M239.9,517.7l-3.1-1.7l0.4-0.8l3.1,1.8L239.9,517.7z M233.7,514.2l-3.1-1.8l0.4-0.8l3.1,1.8L233.7,514.2z
	 M227.5,510.7l-3.1-1.8l0.4-0.8l3.1,1.8L227.5,510.7z M221.4,507.2l-3.1-1.8l0.4-0.8l3.1,1.8L221.4,507.2z"/>
<rect x="214.2" y="502" transform="matrix(0.4934 -0.8698 0.8698 0.4934 -328.6431 441.4499)" class="st0" width="0.9" height="1.8"/>
<path class="st1" d="M143.6,45.3c25.4-14.7,46.8-6.9,52.8,16.7c2-1.6,4.1-3,6.3-4.3c20-11.5,36.2-2.3,36.3,20.7
	c0.1,21.5-14.1,47.4-32.3,60.1L85.1,208.9c-20,11.5-36.2,2.3-36.3-20.7c-0.1-23,16.1-50.9,36.1-62.5c2.1-1.2,4.3-2.2,6.3-3
	C96.9,92.4,118.2,60,143.6,45.3z"/>
<path class="st2" d="M81.9,465.6c0.1,10.2-8.1,18.5-18.3,18.6s-18.5-8.1-18.6-18.3c-0.1-10.2,8.1-18.5,18.3-18.6
	S81.8,455.4,81.9,465.6z"/>
<path class="st2" d="M245.6,371c0.1,10.2-8.1,18.5-18.3,18.6c-10.2,0.1-18.5-8.1-18.6-18.3c-0.1-10.2,8.1-18.5,18.3-18.6
	C237.2,352.6,245.5,360.8,245.6,371z"/>
<path class="st3" d="M170.1,410.6c0.1,13.7-10.9,24.9-24.6,25c-13.7,0.1-24.9-10.9-25-24.6s10.9-24.9,24.6-25
	C158.8,385.9,170,396.9,170.1,410.6z"/>
<path class="st4" d="M168,410.6c0.1,12.5-10,22.8-22.5,22.9s-22.8-10-22.9-22.5c-0.1-12.5,10-22.8,22.5-22.9S167.9,398.1,168,410.6z
	"/>
<path class="st5" d="M165.9,410.6c0.1,11.4-9,20.7-20.4,20.8c-11.4,0.1-20.7-9-20.8-20.4s9-20.7,20.4-20.8
	C156.5,390.1,165.8,399.3,165.9,410.6z"/>
<path class="st2" d="M163.7,410.7c0.1,10.2-8.1,18.5-18.3,18.6s-18.5-8.1-18.6-18.3c-0.1-10.2,8.1-18.5,18.3-18.6
	C155.3,392.3,163.7,400.5,163.7,410.7z"/>
<polygon class="st0" points="239.6,592.9 182.6,559.7 183.1,559 239.6,591.8 280.6,568.2 281.1,568.9 "/>
<rect x="194.6" y="550.4" transform="matrix(0.5 -0.866 0.866 0.5 -414.2865 464.3691)" class="st0" width="0.9" height="81.1"/>
<polygon class="st0" points="140.2,653.9 115.1,639.3 138,626 91.3,599 91.8,598.2 139.8,626.1 116.8,639.3 140.7,653.2 "/>
<path class="st0" d="M327.9,557.7l-47.2-27l-21.8,12.7l-0.2-0.1c-12.9-7.7-32.4-19.2-33.5-19.5l0.2-0.9c0.9,0.1,25.6,14.8,33.5,19.5
	l21.8-12.7l47.6,27.3L327.9,557.7z"/>
<path class="st0" d="M227.6,609.9c1.4-0.8,3.6-0.8,5,0s1.4,2.1,0,2.9c-1.4,0.8-3.6,0.8-5,0C226.3,612,226.2,610.7,227.6,609.9z"/>
<path class="st0" d="M278.4,567.1c1.4-0.8,3.6-0.8,5,0c1.4,0.8,1.4,2.1,0,2.9c-1.4,0.8-3.6,0.8-5,0C277,569.1,277,567.9,278.4,567.1
	z"/>
<path class="st0" d="M324.6,555.4c1.4-0.8,3.6-0.8,5,0c1.4,0.8,1.4,2.1,0,2.9c-1.4,0.8-3.6,0.8-5,0
	C323.3,557.4,323.3,556.2,324.6,555.4z"/>
<path class="st0" d="M138,652.1c1.4-0.8,3.6-0.8,5,0s1.4,2.1,0,2.9c-1.4,0.8-3.6,0.8-5,0S136.6,652.9,138,652.1z"/>
<path class="st6" d="M274.2,373.7l-48.8-28.2c-1.8-1.1-4.8-1.1-6.6,0l-48.5,28.2c-0.9,0.5-1.4,1.2-1.4,1.9l0,0l-0.4,135.3
	c0,0.7,0.5,1.4,1.4,1.9l48.9,28.2c0.2,0.1,0.5,0.2,0.7,0.3c0.1,0,0.2,0.1,0.3,0.1c0.2,0.1,0.3,0.1,0.5,0.2c0.1,0,0.2,0,0.3,0.1
	c0.2,0,0.3,0.1,0.5,0.1c0.1,0,0.2,0,0.4,0c0.2,0,0.3,0,0.5,0l0,0c0.2,0,0.3,0,0.5,0c0.1,0,0.3,0,0.4,0c0.2,0,0.4-0.1,0.5-0.1
	s0.2,0,0.4-0.1c0.2,0,0.4-0.1,0.5-0.2c0.1,0,0.2-0.1,0.3-0.1c0.3-0.1,0.5-0.2,0.7-0.3l48.5-28.2c0.1-0.1,0.3-0.2,0.4-0.3l0.1-0.1
	c0.1-0.1,0.2-0.1,0.2-0.2c0,0,0,0,0.1-0.1c0.1-0.1,0.2-0.2,0.2-0.3c0,0,0,0,0-0.1c0.1-0.1,0.1-0.2,0.1-0.3l0,0c0,0,0,0,0-0.1
	s0-0.1,0.1-0.2V511c0-0.1,0-0.2,0-0.3l0.4-135.3l0,0C275.6,375,275.2,374.2,274.2,373.7z M275.6,375.9
	C275.6,376,275.6,376,275.6,375.9C275.6,376,275.6,376,275.6,375.9L275.6,375.9z M275,377C275,377,275,376.9,275,377
	C275,376.9,275,377,275,377z M274.7,377.3C274.7,377.2,274.7,377.2,274.7,377.3C274.7,377.2,274.7,377.2,274.7,377.3z M275.5,376.2
	C275.5,376.2,275.5,376.3,275.5,376.2C275.5,376.3,275.5,376.2,275.5,376.2z M169.2,376.3c0,0,0,0.1,0.1,0.1
	C169.2,376.3,169.2,376.3,169.2,376.3z M169,375.7v0.1C169,375.8,169,375.8,169,375.7z M169.1,376v0.1V376z M169.5,376.8l0.1,0.1
	C169.5,376.8,169.5,376.8,169.5,376.8z M169.3,376.5c0,0,0,0.1,0.1,0.1C169.3,376.6,169.3,376.6,169.3,376.5z M170,377.3L170,377.3
	L170,377.3z M169.7,377l0.1,0.1L169.7,377z"/>
<path id="SVGID_1_" class="st7" d="M275.6,375.6L275.2,511c0,0.7-0.5,1.4-1.4,1.9l0.4-135.3C275.2,377,275.6,376.3,275.6,375.6z"/>
<g>
	<defs>
		<path id="SVGID_00000061437314700073397600000001219064778015543181_" d="M275.6,375.6L275.2,511c0,0.7-0.5,1.4-1.4,1.9l0.4-135.3
			C275.2,377,275.6,376.3,275.6,375.6z"/>
	</defs>
	<clipPath id="SVGID_00000174604176300275957550000002677386526209842086_">
		<use xlink:href="#SVGID_00000061437314700073397600000001219064778015543181_"  style="overflow:visible;"/>
	</clipPath>
	<path style="clip-path:url(#SVGID_00000174604176300275957550000002677386526209842086_);fill:#C6D5FA;" d="M275.6,375.6L275.2,511
		c0,0.2,0,0.4-0.1,0.6l0.4-135.3C275.6,376.1,275.6,375.8,275.6,375.6z"/>
	<path style="clip-path:url(#SVGID_00000174604176300275957550000002677386526209842086_);fill:#C6D5FA;" d="M275.5,376.3
		l-0.4,135.3c-0.2,0.5-0.6,0.9-1.2,1.3l0.4-135.3C274.9,377.2,275.3,376.7,275.5,376.3z"/>
</g>
<path id="SVGID_3_" class="st9" d="M168.6,510.9l0.4-135.3c0,0.7,0.5,1.4,1.4,1.9L170,512.8C169.1,512.3,168.6,511.6,168.6,510.9z"
	/>
<g>
	<defs>
		<path id="SVGID_00000100380734598593099440000004418758082003198899_" d="M168.6,510.9l0.4-135.3c0,0.7,0.5,1.4,1.4,1.9L170,512.8
			C169.1,512.3,168.6,511.6,168.6,510.9z"/>
	</defs>
	<clipPath id="SVGID_00000069368060605193114560000005877094099567917461_">
		<use xlink:href="#SVGID_00000100380734598593099440000004418758082003198899_"  style="overflow:visible;"/>
	</clipPath>
	<path style="clip-path:url(#SVGID_00000069368060605193114560000005877094099567917461_);fill:#DAE8FD;" d="M170.4,377.5L170,512.8
		c-0.9-0.5-1.4-1.2-1.4-1.9l0.4-135.3C169,376.3,169.5,377,170.4,377.5z"/>
</g>
<polygon class="st7" points="274.3,377.5 273.9,512.9 225.4,541 225.8,405.7 "/>
<polygon class="st11" points="227.6,406.8 272.4,380.7 272,511.8 227.2,537.8 "/>
<polygon class="st9" points="219.2,405.7 218.8,541 170,512.9 170.4,377.5 "/>
<g>
	<defs>
		<path id="SVGID_00000032610913544866309910000011879764501991601040_" d="M225.8,405.7L225.4,541c-1.8,1.1-4.8,1.1-6.6,0
			l0.4-135.3C221,406.7,224,406.7,225.8,405.7z"/>
	</defs>
	<clipPath id="SVGID_00000097488518228310789230000008967335921546636725_">
		<use xlink:href="#SVGID_00000032610913544866309910000011879764501991601040_"  style="overflow:visible;"/>
	</clipPath>
	<path style="clip-path:url(#SVGID_00000097488518228310789230000008967335921546636725_);fill:#CDDCFB;" d="M225.8,405.7L225.4,541
		c-0.9,0.5-2.2,0.8-3.4,0.8l0.4-135.3C223.6,406.5,224.9,406.2,225.8,405.7z"/>
	<path style="clip-path:url(#SVGID_00000097488518228310789230000008967335921546636725_);fill:#D4E2FC;" d="M222.4,406.5L222,541.8
		c-1.2,0-2.3-0.3-3.2-0.8l0.4-135.3C220.1,406.2,221.2,406.5,222.4,406.5z"/>
</g>
<path class="st1" d="M274.2,373.7c1.8,1.1,1.8,2.8,0,3.8l-48.4,28.2c-1.8,1.1-4.8,1.1-6.6,0l-48.8-28.2c-1.8-1.1-1.8-2.8,0-3.8
	l48.5-28.2c1.8-1.1,4.8-1.1,6.6,0L274.2,373.7z"/>
<polygon class="st2" points="236.2,405.6 230.5,408.9 230.5,413.4 236.2,410.1 "/>
<polygon class="st2" points="256.7,398.3 269.1,391.1 269.1,386.6 256.7,393.8 "/>
<polygon class="st2" points="238.6,408.7 254,399.9 254,395.3 238.6,404.2 "/>
<polygon class="st2" points="250.4,409 247.2,410.8 247.2,406.3 250.4,404.5 "/>
<polygon class="st2" points="269.1,398.2 266,400 266,395.5 269.1,393.7 "/>
<polygon class="st2" points="263.8,396.7 252.3,403.4 252.3,407.9 263.8,401.2 "/>
<polygon class="st2" points="263.8,409.6 252.3,416.3 252.3,420.8 263.8,414.1 "/>
<polygon class="st2" points="245.1,407.5 230.5,415.9 230.5,420.5 245.1,412.1 "/>
<polygon class="st2" points="242.7,415.1 230.5,422.3 230.5,426.8 242.7,419.7 "/>
<polygon class="st2" points="263.5,403.2 263.5,407.8 269.1,404.5 269.1,400 "/>
<polygon class="st2" points="247.4,412.6 247.4,417.1 254,413.3 254,408.8 "/>
<polygon class="st2" points="269.1,411.2 266,413 266,408.5 269.1,406.7 "/>
<polygon class="st2" points="250.4,417.3 230.5,428.9 230.5,433.5 250.4,421.9 "/>
<polygon class="st2" points="236.2,485.2 230.5,488.5 230.5,493.1 236.2,489.8 "/>
<polygon class="st2" points="256.7,478 269.1,470.8 269.1,466.3 256.7,473.4 "/>
<polygon class="st2" points="250.4,488.7 247.2,490.5 247.2,486 250.4,484.2 "/>
<polygon class="st2" points="269.1,477.9 266,479.7 266,475.1 269.1,473.3 "/>
<polygon class="st2" points="263.8,476.4 252.3,483.1 252.3,487.6 263.8,480.9 "/>
<polygon class="st2" points="263.8,489.3 252.3,496 252.3,500.5 263.8,493.8 "/>
<polygon class="st2" points="245.1,487.2 230.5,495.6 230.5,500.2 245.1,491.7 "/>
<polygon class="st2" points="263.5,482.9 263.5,487.5 269.1,484.2 269.1,479.7 "/>
<polygon class="st2" points="247.4,492.2 247.4,496.8 254,493 254,488.4 "/>
<polygon class="st2" points="269.1,490.9 266,492.7 266,488.1 269.1,486.3 "/>
<polygon class="st2" points="250.4,497 230.5,508.6 230.5,513.2 250.4,501.5 "/>
<polygon class="st2" points="236.2,458.7 230.5,462 230.5,466.5 236.2,463.2 "/>
<polygon class="st2" points="256.7,451.4 269.1,444.2 269.1,439.7 256.7,446.9 "/>
<polygon class="st2" points="238.6,461.9 254,453 254,448.5 238.6,457.3 "/>
<polygon class="st2" points="250.4,462.1 247.2,463.9 247.2,459.4 250.4,457.6 "/>
<polygon class="st2" points="269.1,451.3 266,453.1 266,448.6 269.1,446.8 "/>
<polygon class="st2" points="263.8,449.8 252.3,456.5 252.3,461 263.8,454.4 "/>
<polygon class="st2" points="263.8,462.7 252.3,469.4 252.3,473.9 263.8,467.3 "/>
<polygon class="st2" points="245.1,460.6 230.5,469.1 230.5,473.6 245.1,465.2 "/>
<polygon class="st2" points="242.7,468.2 230.5,475.4 230.5,479.9 242.7,472.8 "/>
<polygon class="st2" points="260.5,458.1 256.7,460.3 256.7,464.8 260.5,462.6 "/>
<polygon class="st2" points="269.1,464.3 266,466.1 266,461.6 269.1,459.8 "/>
<polygon class="st2" points="250.4,470.5 230.5,482.1 230.5,486.6 250.4,475 "/>
<polygon class="st2" points="256.7,424.8 269.1,417.7 269.1,413.1 256.7,420.3 "/>
<polygon class="st2" points="238.6,435.3 254,426.4 254,421.9 238.6,430.8 "/>
<polygon class="st2" points="250.4,435.6 247.2,437.4 247.2,432.9 250.4,431 "/>
<polygon class="st2" points="269.1,424.7 266,426.6 266,422 269.1,420.2 "/>
<polygon class="st2" points="263.8,423.3 252.3,429.9 252.3,434.5 263.8,427.8 "/>
<polygon class="st2" points="263.8,436.2 252.3,442.8 252.3,447.4 263.8,440.7 "/>
<polygon class="st2" points="245.1,434.1 230.5,442.5 230.5,447 245.1,438.6 "/>
<polygon class="st2" points="242.7,441.7 230.5,448.8 230.5,453.4 242.7,446.2 "/>
<polygon class="st2" points="269.1,437.7 266,439.5 266,435 269.1,433.2 "/>
<polygon class="st2" points="250.4,443.9 230.5,455.5 230.5,460 250.4,448.4 "/>
<polygon class="st2" points="263.8,503.1 252.3,509.7 252.3,514.3 263.8,507.6 "/>
<polygon class="st2" points="242.7,508.6 230.5,515.8 230.5,520.3 242.7,513.1 "/>
<polygon class="st2" points="269.1,504.7 266,506.5 266,501.9 269.1,500.1 "/>
<polygon class="st2" points="250.4,510.8 230.5,522.4 230.5,526.9 250.4,515.3 "/>
<polygon class="st6" points="215.3,425.7 173.9,401.8 173.9,404.6 215.3,428.4 "/>
<polygon class="st6" points="215.3,435.3 173.9,411.4 173.9,414.1 215.3,438 "/>
<polygon class="st6" points="215.3,458.7 173.9,434.9 173.9,437.6 215.3,461.5 "/>
<polygon class="st6" points="215.3,473.2 173.9,449.3 173.9,452 215.3,475.9 "/>
<polygon class="st6" points="215.3,482.2 173.9,458.3 173.9,461.1 215.3,485 "/>
<polygon class="st6" points="215.3,505.7 173.9,481.8 173.9,484.6 215.3,508.4 "/>
<polygon class="st6" points="215.3,519.2 173.9,495.4 173.9,498.1 215.3,522 "/>
<path class="st6" d="M177,372.7L177,372.7l-0.1,4.1c0,0.1,0,0.2,0,0.2v0.1c0,0.1,0,0.1,0.1,0.2l0,0l0,0c0,0.1,0.1,0.1,0.1,0.2l0,0
	c0.1,0.1,0.1,0.2,0.2,0.2c0,0,0,0,0.1,0.1s0.1,0.1,0.2,0.2c0,0,0.1,0,0.1,0.1c0.1,0.1,0.2,0.1,0.3,0.2l41.2,24
	c0.2,0.1,0.4,0.2,0.6,0.3c0.1,0,0.2,0,0.2,0.1c0.2,0,0.3,0.1,0.5,0.1c0.1,0,0.2,0,0.3,0.1c0.1,0,0.3,0.1,0.4,0.1s0.2,0,0.3,0
	c0.1,0,0.3,0,0.4,0l0,0c0.1,0,0.3,0,0.4,0s0.2,0,0.3,0c0.1,0,0.3,0,0.4-0.1c0.1,0,0.2,0,0.3-0.1c0.2,0,0.3-0.1,0.5-0.1
	c0.1,0,0.2,0,0.2-0.1c0.2-0.1,0.4-0.2,0.6-0.3l41.5-24c0.8-0.5,1.2-1,1.2-1.6l0.1-4.1c0-0.6-0.4-1.2-1.2-1.6L225,347
	c-1.5-0.9-4.1-0.9-5.6,0l-41.5,24C177.4,371.5,177,372.1,177,372.7z M177,373L177,373L177,373z M177.5,373.8L177.5,373.8
	L177.5,373.8z M177.7,374C177.8,374.1,177.8,374.1,177.7,374C177.8,374.1,177.8,374.1,177.7,374z M177.1,373.2L177.1,373.2
	L177.1,373.2z M267.5,373.4C267.5,373.3,267.5,373.3,267.5,373.4C267.5,373.3,267.5,373.3,267.5,373.4z M267.7,372.9v-0.1V372.9z
	 M267.6,373.1V373C267.6,373.1,267.6,373.1,267.6,373.1z M267.2,373.8C267.3,373.7,267.3,373.7,267.2,373.8
	C267.3,373.7,267.3,373.7,267.2,373.8z M267.4,373.6C267.4,373.5,267.4,373.5,267.4,373.6C267.4,373.5,267.4,373.5,267.4,373.6z
	 M266.8,374.1L266.8,374.1L266.8,374.1z M267,374C267.1,373.9,267.1,373.9,267,374C267.1,373.9,267.1,373.9,267,374z"/>
<path id="SVGID_7_" class="st7" d="M177,372.7l-0.1,4.1c0,0.6,0.4,1.2,1.2,1.6l0.1-4.1C177.4,373.9,177,373.3,177,372.7z"/>
<g>
	<defs>
		<path id="SVGID_00000049904009169318435010000006636562775421634688_" d="M177,372.7l-0.1,4.1c0,0.6,0.4,1.2,1.2,1.6l0.1-4.1
			C177.4,373.9,177,373.3,177,372.7z"/>
	</defs>
	<clipPath id="SVGID_00000054260085141109211770000009835067036816963992_">
		<use xlink:href="#SVGID_00000049904009169318435010000006636562775421634688_"  style="overflow:visible;"/>
	</clipPath>
	<path style="clip-path:url(#SVGID_00000054260085141109211770000009835067036816963992_);fill:#C6D5FA;" d="M177,372.7l-0.1,4.1
		c0,0.2,0,0.4,0.1,0.5l0.1-4.1C177,373.1,177,372.9,177,372.7z"/>
	<path style="clip-path:url(#SVGID_00000054260085141109211770000009835067036816963992_);fill:#C6D5FA;" d="M177.1,373.3l-0.1,4.1
		c0.2,0.4,0.5,0.8,1,1.1l0.1-4.1C177.6,374,177.3,373.6,177.1,373.3z"/>
</g>
<path id="SVGID_9_" class="st9" d="M267.6,376.8l0.1-4.1c0,0.6-0.4,1.2-1.2,1.6l-0.1,4.1C267.2,378,267.6,377.4,267.6,376.8z"/>
<g>
	<defs>
		<path id="SVGID_00000095334487792840564850000014697482203975106226_" d="M267.6,376.8l0.1-4.1c0,0.6-0.4,1.2-1.2,1.6l-0.1,4.1
			C267.2,378,267.6,377.4,267.6,376.8z"/>
	</defs>
	<clipPath id="SVGID_00000180359815621871992100000017904548701151826870_">
		<use xlink:href="#SVGID_00000095334487792840564850000014697482203975106226_"  style="overflow:visible;"/>
	</clipPath>
	<path style="clip-path:url(#SVGID_00000180359815621871992100000017904548701151826870_);fill:#DAE8FD;" d="M266.5,374.3l-0.1,4.1
		c0.8-0.5,1.2-1,1.2-1.6l0.1-4.1C267.7,373.3,267.3,373.9,266.5,374.3z"/>
</g>
<polygon class="st7" points="178.2,374.3 178.1,378.5 219.3,402.4 219.4,398.3 "/>
<polygon class="st9" points="225,398.3 224.9,402.4 266.5,378.5 266.5,374.3 "/>
<g>
	<defs>
		<path id="SVGID_00000065781919596007937240000014944976452968203709_" d="M219.4,398.3l-0.1,4.1c1.5,0.9,4.1,0.9,5.6,0l0.1-4.1
			C223.5,399.2,220.9,399.2,219.4,398.3z"/>
	</defs>
	<clipPath id="SVGID_00000017474321004768920050000016611112123958459272_">
		<use xlink:href="#SVGID_00000065781919596007937240000014944976452968203709_"  style="overflow:visible;"/>
	</clipPath>
	<path style="clip-path:url(#SVGID_00000017474321004768920050000016611112123958459272_);fill:#CDDCFB;" d="M219.4,398.3l-0.1,4.1
		c0.8,0.5,1.8,0.7,2.9,0.7l0.1-4.1C221.2,399,220.2,398.8,219.4,398.3z"/>
	<path style="clip-path:url(#SVGID_00000017474321004768920050000016611112123958459272_);fill:#D4E2FC;" d="M222.3,399l-0.1,4.1
		c1,0,2-0.2,2.7-0.7l0.1-4.1C224.2,398.7,223.3,399,222.3,399z"/>
</g>
<path class="st2" d="M178.2,371.1c-1.6,0.9-1.6,2.4,0,3.2l41.2,24c1.5,0.9,4.1,0.9,5.6,0l41.5-24c1.6-0.9,1.6-2.4,0-3.2l-41.2-24
	c-1.5-0.9-4.1-0.9-5.6,0L178.2,371.1z"/>
<path class="st9" d="M254.5,373.9l-1.9,1.1l-28.3,16.3c-1.1,0.7-3,0.7-4.1,0L192.1,375l-1.9-1.1c-1.1-0.7-1.1-1.7,0-2.4l30.2-17.4
	c1.1-0.7,3-0.7,4.1,0l30,17.4C255.6,372.2,255.6,373.2,254.5,373.9z"/>
<path class="st7" d="M252.5,375l-28.3,16.3c-1.1,0.7-3,0.7-4.1,0l-28-16.3l28.3-16.3c1.1-0.7,3-0.7,4.1,0L252.5,375z"/>
<path class="st6" d="M197.4,416.1l-48.8-28.2c-1.8-1.1-4.8-1.1-6.6,0l-48.5,28.2c-0.9,0.5-1.4,1.2-1.4,1.9l0,0l-0.3,135.3
	c0,0.7,0.5,1.4,1.4,1.9l48.8,28.2c0.2,0.1,0.5,0.2,0.7,0.3c0.1,0,0.2,0.1,0.3,0.1c0.2,0.1,0.3,0.1,0.5,0.2c0.1,0,0.2,0,0.3,0.1
	c0.2,0,0.3,0.1,0.5,0.1c0.1,0,0.3,0,0.4,0c0.2,0,0.3,0,0.5,0l0,0c0.2,0,0.3,0,0.5,0c0.1,0,0.3,0,0.4,0c0.2,0,0.4-0.1,0.5-0.1
	s0.2,0,0.3-0.1c0.2,0,0.4-0.1,0.5-0.2c0.1,0,0.2-0.1,0.3-0.1c0.3-0.1,0.5-0.2,0.7-0.3l48.5-28.2c0.1-0.1,0.3-0.2,0.4-0.3l0.1-0.1
	c0.1-0.1,0.2-0.1,0.2-0.2c0,0,0,0,0.1-0.1c0.1-0.1,0.2-0.2,0.2-0.3c0,0,0,0,0-0.1c0.1-0.1,0.1-0.2,0.1-0.3l0,0c0,0,0,0,0-0.1
	c0-0.1,0-0.1,0.1-0.2v-0.1c0-0.1,0-0.2,0-0.3l0.7-135.1l0,0C198.8,417.3,198.3,416.6,197.4,416.1z M198.7,418.3L198.7,418.3
	L198.7,418.3L198.7,418.3z M198.1,419.3C198.1,419.3,198.2,419.3,198.1,419.3C198.2,419.3,198.1,419.3,198.1,419.3z M197.8,419.6
	C197.8,419.6,197.9,419.6,197.8,419.6C197.9,419.6,197.8,419.6,197.8,419.6z M198.6,418.6L198.6,418.6L198.6,418.6z M92.3,418.6v0.1
	C92.3,418.7,92.3,418.7,92.3,418.6z M92.2,418.1v0.1V418.1z M92.2,418.4v0.1C92.2,418.4,92.2,418.4,92.2,418.4z M92.6,419.1l0.1,0.1
	C92.7,419.2,92.7,419.2,92.6,419.1z M92.5,418.9c0,0,0,0.1,0.1,0.1C92.5,418.9,92.5,418.9,92.5,418.9z M93.1,419.6
	C93.2,419.6,93.2,419.7,93.1,419.6C93.2,419.7,93.2,419.6,93.1,419.6z M92.8,419.4l0.1,0.1C92.9,419.4,92.9,419.4,92.8,419.4z"/>
<path id="SVGID_13_" class="st7" d="M198.8,418l-0.4,135.3c0,0.7-0.5,1.4-1.4,1.9l0.4-135.3C198.3,419.4,198.8,418.7,198.8,418z"/>
<g>
	<defs>
		<path id="SVGID_00000151528552506159161240000012857209116443557281_" d="M198.8,418l-0.4,135.3c0,0.7-0.5,1.4-1.4,1.9l0.4-135.3
			C198.3,419.4,198.8,418.7,198.8,418z"/>
	</defs>
	<clipPath id="SVGID_00000015348302445857082230000001350830834793218218_">
		<use xlink:href="#SVGID_00000151528552506159161240000012857209116443557281_"  style="overflow:visible;"/>
	</clipPath>
	<path style="clip-path:url(#SVGID_00000015348302445857082230000001350830834793218218_);fill:#C6D5FA;" d="M198.8,418l-0.4,135.3
		c0,0.2,0,0.4-0.1,0.6l0.4-135.3C198.7,418.4,198.8,418.2,198.8,418z"/>
	<path style="clip-path:url(#SVGID_00000015348302445857082230000001350830834793218218_);fill:#C6D5FA;" d="M198.6,418.6
		l-0.4,135.3c-0.2,0.5-0.6,0.9-1.2,1.3l0.4-135.3C198,419.5,198.4,419.1,198.6,418.6z"/>
</g>
<path id="SVGID_15_" class="st9" d="M91.8,553.3L92.2,418c0,0.7,0.5,1.4,1.4,1.9l-0.4,135.3C92.2,554.7,91.8,554,91.8,553.3z"/>
<g>
	<defs>
		<path id="SVGID_00000016790126741106348660000017194713048658404004_" d="M91.8,553.3L92.2,418c0,0.7,0.5,1.4,1.4,1.9l-0.4,135.3
			C92.2,554.7,91.8,554,91.8,553.3z"/>
	</defs>
	<clipPath id="SVGID_00000166636383076650750740000010615453092551276685_">
		<use xlink:href="#SVGID_00000016790126741106348660000017194713048658404004_"  style="overflow:visible;"/>
	</clipPath>
	<path style="clip-path:url(#SVGID_00000166636383076650750740000010615453092551276685_);fill:#DAE8FD;" d="M93.6,419.9l-0.4,135.3
		c-0.9-0.5-1.4-1.2-1.4-1.9L92.2,418C92.2,418.7,92.6,419.3,93.6,419.9z"/>
</g>
<polygon class="st7" points="197.4,419.9 197,555.2 148.5,583.4 148.9,448 "/>
<polygon class="st11" points="150.8,449.1 195.6,423.1 195.2,554.1 150.4,580.2 "/>
<polygon class="st9" points="142.3,448 142,583.4 93.2,555.2 93.6,419.9 "/>
<g>
	<defs>
		<path id="SVGID_00000129891758162814755130000013927573239979422593_" d="M148.9,448l-0.4,135.3c-1.8,1.1-4.8,1.1-6.6,0l0.4-135.3
			C144.2,449.1,147.1,449.1,148.9,448z"/>
	</defs>
	<clipPath id="SVGID_00000168102020794120554440000002699476141523767970_">
		<use xlink:href="#SVGID_00000129891758162814755130000013927573239979422593_"  style="overflow:visible;"/>
	</clipPath>
	<path style="clip-path:url(#SVGID_00000168102020794120554440000002699476141523767970_);fill:#CDDCFB;" d="M148.9,448l-0.4,135.3
		c-0.9,0.5-2.2,0.8-3.4,0.8l0.4-135.3C146.8,448.9,148,448.6,148.9,448z"/>
	<path style="clip-path:url(#SVGID_00000168102020794120554440000002699476141523767970_);fill:#D4E2FC;" d="M145.6,448.8
		l-0.4,135.3c-1.2,0-2.3-0.3-3.2-0.8l0.4-135.3C143.2,448.6,144.4,448.8,145.6,448.8z"/>
</g>
<path class="st1" d="M197.4,416.1c1.8,1.1,1.8,2.8,0,3.8L148.9,448c-1.8,1.1-4.8,1.1-6.6,0l-48.8-28.2c-1.8-1.1-1.8-2.8,0-3.8
	l48.5-28.2c1.8-1.1,4.8-1.1,6.6,0L197.4,416.1z"/>
<polygon class="st2" points="159.4,447.9 153.7,451.2 153.7,455.8 159.4,452.4 "/>
<polygon class="st2" points="179.8,440.6 192.3,433.5 192.3,428.9 179.8,436.1 "/>
<polygon class="st2" points="161.8,451.1 177.1,442.2 177.1,437.7 161.8,446.6 "/>
<polygon class="st2" points="173.5,451.4 170.4,453.2 170.4,448.6 173.5,446.8 "/>
<polygon class="st2" points="192.3,440.5 189.2,442.3 189.2,437.8 192.3,436 "/>
<polygon class="st2" points="187,439.1 175.4,445.7 175.4,450.3 187,443.6 "/>
<polygon class="st2" points="187,452 175.4,458.6 175.4,463.2 187,456.5 "/>
<polygon class="st2" points="168.2,449.9 153.7,458.3 153.7,462.8 168.2,454.4 "/>
<polygon class="st2" points="165.9,457.5 153.7,464.6 153.7,469.2 165.9,462 "/>
<polygon class="st2" points="186.6,445.6 186.6,450.1 192.3,446.9 192.3,442.3 "/>
<polygon class="st2" points="170.5,454.9 170.5,459.4 177.1,455.6 177.1,451.1 "/>
<polygon class="st2" points="192.3,453.5 189.2,455.3 189.2,450.8 192.3,449 "/>
<polygon class="st2" points="173.5,459.7 153.7,471.3 153.7,475.8 173.5,464.2 "/>
<polygon class="st2" points="159.4,527.6 153.7,530.9 153.7,535.4 159.4,532.1 "/>
<polygon class="st2" points="179.8,520.3 192.3,513.1 192.3,508.6 179.8,515.8 "/>
<polygon class="st2" points="173.5,531.1 170.4,532.9 170.4,528.3 173.5,526.5 "/>
<polygon class="st2" points="192.3,520.2 189.2,522 189.2,517.5 192.3,515.7 "/>
<polygon class="st2" points="187,518.7 175.4,525.4 175.4,529.9 187,523.3 "/>
<polygon class="st2" points="187,531.6 175.4,538.3 175.4,542.8 187,536.2 "/>
<polygon class="st2" points="168.2,529.6 153.7,538 153.7,542.5 168.2,534.1 "/>
<polygon class="st2" points="186.6,525.3 186.6,529.8 192.3,526.6 192.3,522 "/>
<polygon class="st2" points="170.5,534.6 170.5,539.1 177.1,535.3 177.1,530.8 "/>
<polygon class="st2" points="192.3,533.2 189.2,535 189.2,530.5 192.3,528.7 "/>
<polygon class="st2" points="173.5,539.4 153.7,551 153.7,555.5 173.5,543.9 "/>
<polygon class="st2" points="159.4,501 153.7,504.3 153.7,508.9 159.4,505.6 "/>
<polygon class="st2" points="179.8,493.8 192.3,486.6 192.3,482.1 179.8,489.2 "/>
<polygon class="st2" points="161.8,504.2 177.1,495.3 177.1,490.8 161.8,499.7 "/>
<polygon class="st2" points="173.5,504.5 170.4,506.3 170.4,501.8 173.5,500 "/>
<polygon class="st2" points="192.3,493.7 189.2,495.5 189.2,490.9 192.3,489.1 "/>
<polygon class="st2" points="187,492.2 175.4,498.8 175.4,503.4 187,496.7 "/>
<polygon class="st2" points="187,505.1 175.4,511.7 175.4,516.3 187,509.6 "/>
<polygon class="st2" points="168.2,503 153.7,511.4 153.7,516 168.2,507.5 "/>
<polygon class="st2" points="165.9,510.6 153.7,517.8 153.7,522.3 165.9,515.1 "/>
<polygon class="st2" points="183.6,500.4 179.8,502.6 179.8,507.2 183.6,505 "/>
<polygon class="st2" points="192.3,506.7 189.2,508.5 189.2,503.9 192.3,502.1 "/>
<polygon class="st2" points="173.5,512.8 153.7,524.4 153.7,528.9 173.5,517.3 "/>
<polygon class="st2" points="179.8,467.2 192.3,460 192.3,455.5 179.8,462.7 "/>
<polygon class="st2" points="161.8,477.6 177.1,468.8 177.1,464.3 161.8,473.1 "/>
<polygon class="st2" points="173.5,477.9 170.4,479.7 170.4,475.2 173.5,473.4 "/>
<polygon class="st2" points="192.3,467.1 189.2,468.9 189.2,464.4 192.3,462.6 "/>
<polygon class="st2" points="187,465.6 175.4,472.3 175.4,476.8 187,470.1 "/>
<polygon class="st2" points="187,478.5 175.4,485.2 175.4,489.7 187,483.1 "/>
<polygon class="st2" points="168.2,476.4 153.7,484.9 153.7,489.4 168.2,481 "/>
<polygon class="st2" points="165.9,484 153.7,491.2 153.7,495.7 165.9,488.6 "/>
<polygon class="st2" points="192.3,480.1 189.2,481.9 189.2,477.4 192.3,475.6 "/>
<polygon class="st2" points="173.5,486.2 153.7,497.9 153.7,502.4 173.5,490.8 "/>
<polygon class="st2" points="187,545.4 175.4,552.1 175.4,556.6 187,550 "/>
<polygon class="st2" points="165.9,550.9 153.7,558.1 153.7,562.6 165.9,555.5 "/>
<polygon class="st2" points="192.3,547 189.2,548.8 189.2,544.3 192.3,542.5 "/>
<polygon class="st2" points="173.5,553.2 153.7,564.8 153.7,569.3 173.5,557.7 "/>
<polygon class="st6" points="138.4,468 97.1,444.2 97.1,446.9 138.4,470.8 "/>
<polygon class="st6" points="138.4,477.6 97.1,453.7 97.1,456.5 138.4,480.4 "/>
<polygon class="st6" points="138.4,501.1 97.1,477.2 97.1,480 138.4,503.8 "/>
<polygon class="st6" points="138.4,515.5 97.1,491.6 97.1,494.4 138.4,518.3 "/>
<polygon class="st6" points="138.4,524.6 97.1,500.7 97.1,503.4 138.4,527.3 "/>
<polygon class="st6" points="138.4,548 97.1,524.2 97.1,526.9 138.4,550.8 "/>
<polygon class="st6" points="138.4,561.6 97.1,537.7 97.1,540.5 138.4,564.3 "/>
<path class="st6" d="M100.2,415.1L100.2,415.1l-0.1,4.1c0,0.1,0,0.2,0,0.2v0.1c0,0.1,0,0.1,0.1,0.2l0,0l0,0c0,0.1,0.1,0.1,0.1,0.2
	l0,0c0.1,0.1,0.1,0.2,0.2,0.2c0,0,0,0,0.1,0.1s0.1,0.1,0.2,0.2c0,0,0.1,0,0.1,0.1c0.1,0.1,0.2,0.1,0.3,0.2l41.2,24
	c0.2,0.1,0.4,0.2,0.6,0.3c0.1,0,0.2,0,0.2,0.1c0.2,0.1,0.3,0.1,0.5,0.1c0.1,0,0.2,0,0.3,0.1c0.1,0,0.3,0.1,0.4,0.1
	c0.1,0,0.2,0,0.3,0s0.3,0,0.4,0l0,0c0.1,0,0.3,0,0.4,0c0.1,0,0.2,0,0.3,0s0.3,0,0.4-0.1c0.1,0,0.2,0,0.3-0.1c0.2,0,0.3-0.1,0.5-0.1
	c0.1,0,0.2,0,0.2-0.1c0.2-0.1,0.4-0.2,0.6-0.3l41.5-24c0.8-0.5,1.2-1,1.2-1.6l0.1-4.1l0,0c0-0.6-0.4-1.2-1.2-1.6l-41.2-24
	c-1.5-0.9-4.1-0.9-5.6,0l-41.5,24C100.5,413.9,100.1,414.5,100.2,415.1z M100.2,415.3C100.2,415.3,100.2,415.4,100.2,415.3
	C100.2,415.4,100.2,415.3,100.2,415.3z M100.6,416.2L100.6,416.2C100.7,416.2,100.7,416.2,100.6,416.2
	C100.7,416.2,100.7,416.2,100.6,416.2z M100.9,416.4L100.9,416.4L100.9,416.4z M100.3,415.6L100.3,415.6L100.3,415.6L100.3,415.6z
	 M190.7,415.7C190.7,415.7,190.7,415.6,190.7,415.7C190.7,415.6,190.7,415.7,190.7,415.7z M190.8,415.3v-0.1
	C190.8,415.2,190.8,415.2,190.8,415.3z M190.8,415.5v-0.1V415.5z M190.4,416.1L190.4,416.1L190.4,416.1z M190.5,415.9
	C190.6,415.9,190.6,415.9,190.5,415.9C190.6,415.9,190.6,415.9,190.5,415.9z M189.9,416.5C190,416.5,190,416.5,189.9,416.5
	C190,416.5,190,416.5,189.9,416.5z M190.2,416.3L190.2,416.3L190.2,416.3z"/>
<path id="SVGID_19_" class="st7" d="M100.2,415.1l-0.1,4.1c0,0.6,0.4,1.2,1.2,1.6l0.1-4.1C100.5,416.2,100.2,415.6,100.2,415.1z"/>
<g>
	<defs>
		<path id="SVGID_00000152952466467807144650000016673729282001215116_" d="M100.2,415.1l-0.1,4.1c0,0.6,0.4,1.2,1.2,1.6l0.1-4.1
			C100.5,416.2,100.2,415.6,100.2,415.1z"/>
	</defs>
	<clipPath id="SVGID_00000145042236482900132970000001431484353245208216_">
		<use xlink:href="#SVGID_00000152952466467807144650000016673729282001215116_"  style="overflow:visible;"/>
	</clipPath>
	<path style="clip-path:url(#SVGID_00000145042236482900132970000001431484353245208216_);fill:#C6D5FA;" d="M100.2,415.1l-0.1,4.1
		c0,0.2,0,0.4,0.1,0.5l0.1-4.1C100.2,415.4,100.2,415.2,100.2,415.1z"/>
	<path style="clip-path:url(#SVGID_00000145042236482900132970000001431484353245208216_);fill:#C6D5FA;" d="M100.3,415.6l-0.1,4.1
		c0.2,0.4,0.5,0.8,1,1.1l0.1-4.1C100.8,416.4,100.4,416,100.3,415.6z"/>
</g>
<path id="SVGID_21_" class="st9" d="M190.8,419.2l0.1-4.1c0,0.6-0.4,1.2-1.2,1.6l-0.1,4.1C190.4,420.4,190.8,419.8,190.8,419.2z"/>
<g>
	<defs>
		<path id="SVGID_00000042708654494788517410000007015532456952146355_" d="M190.8,419.2l0.1-4.1c0,0.6-0.4,1.2-1.2,1.6l-0.1,4.1
			C190.4,420.4,190.8,419.8,190.8,419.2z"/>
	</defs>
	<clipPath id="SVGID_00000036938534442291339350000010236713356057632913_">
		<use xlink:href="#SVGID_00000042708654494788517410000007015532456952146355_"  style="overflow:visible;"/>
	</clipPath>
	<path style="clip-path:url(#SVGID_00000036938534442291339350000010236713356057632913_);fill:#DAE8FD;" d="M189.7,416.7l-0.1,4.1
		c0.8-0.5,1.2-1,1.2-1.6l0.1-4.1C190.8,415.6,190.4,416.2,189.7,416.7z"/>
</g>
<polygon class="st7" points="101.3,416.7 101.2,420.8 142.5,444.8 142.5,440.6 "/>
<polygon class="st9" points="148.2,440.6 148.1,444.8 189.6,420.8 189.7,416.7 "/>
<g>
	<defs>
		<path id="SVGID_00000084530758940119795950000002401228946112404119_" d="M142.5,440.6l-0.1,4.1c1.5,0.9,4.1,0.9,5.6,0l0.1-4.1
			C146.6,441.5,144.1,441.5,142.5,440.6z"/>
	</defs>
	<clipPath id="SVGID_00000093876508149902829200000012069263195745533573_">
		<use xlink:href="#SVGID_00000084530758940119795950000002401228946112404119_"  style="overflow:visible;"/>
	</clipPath>
	<path style="clip-path:url(#SVGID_00000093876508149902829200000012069263195745533573_);fill:#CDDCFB;" d="M142.5,440.6l-0.1,4.1
		c0.8,0.5,1.8,0.7,2.9,0.7l0.1-4.1C144.4,441.3,143.3,441.1,142.5,440.6z"/>
	<path style="clip-path:url(#SVGID_00000093876508149902829200000012069263195745533573_);fill:#D4E2FC;" d="M145.4,441.3l-0.1,4.1
		c1,0,2-0.2,2.7-0.7l0.1-4.1C147.4,441.1,146.4,441.3,145.4,441.3z"/>
</g>
<path class="st2" d="M101.3,413.4c-1.6,0.9-1.6,2.4,0,3.2l41.2,24c1.5,0.9,4.1,0.9,5.6,0l41.5-24c1.6-0.9,1.6-2.4,0-3.2l-41.2-24
	c-1.5-0.9-4.1-0.9-5.6,0L101.3,413.4z"/>
<path class="st9" d="M177.6,416.2l-1.9,1.1l-28.3,16.3c-1.1,0.7-3,0.7-4.1,0l-28.1-16.3l-1.9-1.1c-1.1-0.7-1.1-1.7,0-2.4l30.2-17.4
	c1.1-0.7,3-0.7,4.1,0l30,17.4C178.8,414.5,178.8,415.6,177.6,416.2z"/>
<path class="st7" d="M175.7,417.3l-28.3,16.3c-1.1,0.7-3,0.7-4.1,0l-28.1-16.3l28.3-16.3c1.1-0.7,3-0.7,4.1,0L175.7,417.3z"/>
<path class="st6" d="M119.7,463l-48.8-28.2c-1.8-1.1-4.8-1.1-6.6,0L15.9,463c-0.9,0.5-1.4,1.2-1.4,1.9l-0.4,135.3
	c0,0.7,0.5,1.4,1.4,1.9l48.8,28.2c0.2,0.1,0.5,0.2,0.7,0.3c0.1,0,0.2,0.1,0.3,0.1c0.2,0.1,0.3,0.1,0.5,0.2c0.1,0,0.2,0,0.3,0.1
	c0.2,0,0.3,0.1,0.5,0.1c0.1,0,0.2,0,0.4,0s0.3,0,0.5,0l0,0c0.2,0,0.3,0,0.5,0c0.1,0,0.3,0,0.4,0c0.2,0,0.4-0.1,0.5-0.1
	s0.2,0,0.3-0.1c0.2,0,0.4-0.1,0.5-0.2c0.1,0,0.2-0.1,0.3-0.1c0.3-0.1,0.5-0.2,0.7-0.3l48.5-28.2c0.1-0.1,0.3-0.2,0.4-0.3l0.1-0.1
	c0.1-0.1,0.2-0.1,0.2-0.2c0,0,0,0,0.1-0.1s0.2-0.2,0.2-0.3c0,0,0,0,0-0.1c0.1-0.1,0.1-0.2,0.1-0.3l0,0c0,0,0,0,0-0.1s0-0.1,0.1-0.2
	v-0.1c0-0.1,0-0.2,0-0.3l0.4-135.3l0,0C121.1,464.2,120.7,463.5,119.7,463z M121.1,465.2L121.1,465.2L121.1,465.2L121.1,465.2z
	 M120.5,466.2L120.5,466.2L120.5,466.2L120.5,466.2z M120.2,466.5L120.2,466.5L120.2,466.5z M121,465.5L121,465.5L121,465.5z
	 M14.7,465.5v0.1C14.7,465.6,14.7,465.6,14.7,465.5z M14.5,465v0.1V465z M14.6,465.3v0.1C14.6,465.3,14.6,465.3,14.6,465.3z M15,466
	l0.1,0.1C15,466.1,15,466.1,15,466z M14.8,465.8c0,0,0,0.1,0.1,0.1C14.8,465.8,14.8,465.8,14.8,465.8z M15.5,466.5
	C15.5,466.5,15.5,466.6,15.5,466.5C15.5,466.6,15.5,466.5,15.5,466.5z M15.2,466.3l0.1,0.1C15.3,466.3,15.2,466.3,15.2,466.3z"/>
<path id="SVGID_25_" class="st7" d="M121.1,464.9l-0.4,135.3c0,0.7-0.5,1.4-1.4,1.9l0.4-135.3C120.6,466.3,121.1,465.6,121.1,464.9z
	"/>
<g>
	<defs>
		<path id="SVGID_00000136384351402792027880000010596123177947920548_" d="M121.1,464.9l-0.4,135.3c0,0.7-0.5,1.4-1.4,1.9
			l0.4-135.3C120.6,466.3,121.1,465.6,121.1,464.9z"/>
	</defs>
	<clipPath id="SVGID_00000129183766002302349740000009363938400420419498_">
		<use xlink:href="#SVGID_00000136384351402792027880000010596123177947920548_"  style="overflow:visible;"/>
	</clipPath>
	<path style="clip-path:url(#SVGID_00000129183766002302349740000009363938400420419498_);fill:#C6D5FA;" d="M121.1,464.9
		l-0.4,135.3c0,0.2,0,0.4-0.1,0.6l0.4-135.3C121.1,465.3,121.1,465.1,121.1,464.9z"/>
	<path style="clip-path:url(#SVGID_00000129183766002302349740000009363938400420419498_);fill:#C6D5FA;" d="M121,465.5l-0.4,135.3
		c-0.2,0.5-0.6,0.9-1.2,1.3l0.4-135.3C120.4,466.4,120.8,466,121,465.5z"/>
</g>
<path id="SVGID_27_" class="st9" d="M14.1,600.2l0.4-135.3c0,0.7,0.5,1.4,1.4,1.9l-0.4,135.3C14.6,601.6,14.1,600.9,14.1,600.2z"/>
<g>
	<defs>
		<path id="SVGID_00000085214476494413811580000003307491241710341769_" d="M14.1,600.2l0.4-135.3c0,0.7,0.5,1.4,1.4,1.9l-0.4,135.3
			C14.6,601.6,14.1,600.9,14.1,600.2z"/>
	</defs>
	<clipPath id="SVGID_00000107548667109877475430000013254679831054771089_">
		<use xlink:href="#SVGID_00000085214476494413811580000003307491241710341769_"  style="overflow:visible;"/>
	</clipPath>
	<path style="clip-path:url(#SVGID_00000107548667109877475430000013254679831054771089_);fill:#DAE8FD;" d="M15.9,466.8l-0.4,135.3
		c-0.9-0.5-1.4-1.2-1.4-1.9l0.4-135.3C14.5,465.6,15,466.2,15.9,466.8z"/>
</g>
<polygon class="st7" points="119.7,466.8 119.4,602.1 70.9,630.3 71.3,494.9 "/>
<polygon class="st11" points="73.1,496 117.9,470 117.5,601 72.7,627.1 "/>
<polygon class="st9" points="64.7,494.9 64.3,630.3 15.5,602.1 15.9,466.8 "/>
<g>
	<defs>
		<path id="SVGID_00000090272863965544643930000011656175119312593588_" d="M71.3,494.9l-0.4,135.3c-1.8,1.1-4.8,1.1-6.6,0
			l0.4-135.3C66.5,496,69.5,496,71.3,494.9z"/>
	</defs>
	<clipPath id="SVGID_00000173145765246835292740000010165900115914461581_">
		<use xlink:href="#SVGID_00000090272863965544643930000011656175119312593588_"  style="overflow:visible;"/>
	</clipPath>
	<path style="clip-path:url(#SVGID_00000173145765246835292740000010165900115914461581_);fill:#CDDCFB;" d="M71.3,494.9l-0.4,135.3
		c-0.9,0.5-2.2,0.8-3.4,0.8l0.4-135.3C69.1,495.7,70.3,495.5,71.3,494.9z"/>
	<path style="clip-path:url(#SVGID_00000173145765246835292740000010165900115914461581_);fill:#D4E2FC;" d="M67.9,495.7L67.5,631
		c-1.2,0-2.3-0.3-3.2-0.8l0.4-135.3C65.6,495.5,66.7,495.7,67.9,495.7z"/>
</g>
<path class="st1" d="M119.7,463c1.8,1.1,1.8,2.8,0,3.8L71.2,495c-1.8,1.1-4.8,1.1-6.6,0l-48.8-28.2c-1.8-1.1-1.8-2.8,0-3.8
	l48.5-28.2c1.8-1.1,4.8-1.1,6.6,0L119.7,463z"/>
<polygon class="st2" points="81.7,494.8 76,498.1 76,502.7 81.7,499.3 "/>
<polygon class="st2" points="102.2,487.5 114.6,480.4 114.6,475.8 102.2,483 "/>
<polygon class="st2" points="84.1,498 99.4,489.1 99.4,484.6 84.1,493.5 "/>
<polygon class="st2" points="95.9,498.3 92.7,500.1 92.7,495.5 95.9,493.7 "/>
<polygon class="st2" points="114.6,487.4 111.5,489.2 111.5,484.7 114.6,482.9 "/>
<polygon class="st2" points="109.3,486 97.8,492.6 97.8,497.2 109.3,490.5 "/>
<polygon class="st2" points="109.3,498.9 97.8,505.5 97.8,510.1 109.3,503.4 "/>
<polygon class="st2" points="90.6,496.8 76,505.2 76,509.7 90.6,501.3 "/>
<polygon class="st2" points="88.2,504.4 76,511.5 76,516.1 88.2,508.9 "/>
<polygon class="st2" points="109,492.5 109,497 114.6,493.8 114.6,489.2 "/>
<polygon class="st2" points="92.8,501.8 92.8,506.3 99.4,502.5 99.4,498 "/>
<polygon class="st2" points="114.6,500.4 111.5,502.2 111.5,497.7 114.6,495.9 "/>
<polygon class="st2" points="95.9,506.6 76,518.2 76,522.7 95.9,511.1 "/>
<polygon class="st2" points="81.7,574.5 76,577.8 76,582.3 81.7,579 "/>
<polygon class="st2" points="102.2,567.2 114.6,560 114.6,555.5 102.2,562.7 "/>
<polygon class="st2" points="95.9,578 92.7,579.8 92.7,575.2 95.9,573.4 "/>
<polygon class="st2" points="114.6,567.1 111.5,568.9 111.5,564.4 114.6,562.6 "/>
<polygon class="st2" points="109.3,565.6 97.8,572.3 97.8,576.8 109.3,570.2 "/>
<polygon class="st2" points="109.3,578.5 97.8,585.2 97.8,589.7 109.3,583.1 "/>
<polygon class="st2" points="90.6,576.5 76,584.9 76,589.4 90.6,581 "/>
<polygon class="st2" points="109,572.2 109,576.7 114.6,573.5 114.6,568.9 "/>
<polygon class="st2" points="92.8,581.5 92.8,586 99.4,582.2 99.4,577.7 "/>
<polygon class="st2" points="114.6,580.1 111.5,581.9 111.5,577.4 114.6,575.6 "/>
<polygon class="st2" points="95.9,586.3 76,597.9 76,602.4 95.9,590.8 "/>
<polygon class="st2" points="81.7,547.9 76,551.2 76,555.8 81.7,552.5 "/>
<polygon class="st2" points="102.2,540.7 114.6,533.5 114.6,529 102.2,536.1 "/>
<polygon class="st2" points="84.1,551.1 99.4,542.2 99.4,537.7 84.1,546.6 "/>
<polygon class="st2" points="95.9,551.4 92.7,553.2 92.7,548.7 95.9,546.9 "/>
<polygon class="st2" points="114.6,540.6 111.5,542.4 111.5,537.8 114.6,536 "/>
<polygon class="st2" points="109.3,539.1 97.8,545.7 97.8,550.3 109.3,543.6 "/>
<polygon class="st2" points="109.3,552 97.8,558.6 97.8,563.2 109.3,556.5 "/>
<polygon class="st2" points="90.6,549.9 76,558.3 76,562.8 90.6,554.4 "/>
<polygon class="st2" points="88.2,557.5 76,564.7 76,569.2 88.2,562 "/>
<polygon class="st2" points="106,547.3 102.2,549.5 102.2,554.1 106,551.9 "/>
<polygon class="st2" points="114.6,553.6 111.5,555.4 111.5,550.8 114.6,549 "/>
<polygon class="st2" points="95.9,559.7 76,571.3 76,575.8 95.9,564.2 "/>
<polygon class="st2" points="102.2,514.1 114.6,506.9 114.6,502.4 102.2,509.6 "/>
<polygon class="st2" points="84.1,524.5 99.4,515.7 99.4,511.2 84.1,520 "/>
<polygon class="st2" points="95.9,524.8 92.7,526.6 92.7,522.1 95.9,520.3 "/>
<polygon class="st2" points="114.6,514 111.5,515.8 111.5,511.3 114.6,509.5 "/>
<polygon class="st2" points="109.3,512.5 97.8,519.2 97.8,523.7 109.3,517 "/>
<polygon class="st2" points="109.3,525.4 97.8,532.1 97.8,536.6 109.3,529.9 "/>
<polygon class="st2" points="90.6,523.3 76,531.8 76,536.3 90.6,527.9 "/>
<polygon class="st2" points="88.2,530.9 76,538.1 76,542.6 88.2,535.5 "/>
<polygon class="st2" points="114.6,527 111.5,528.8 111.5,524.3 114.6,522.5 "/>
<polygon class="st2" points="95.9,533.1 76,544.8 76,549.3 95.9,537.7 "/>
<polygon class="st2" points="109.3,592.3 97.8,599 97.8,603.5 109.3,596.9 "/>
<polygon class="st2" points="88.2,597.8 76,605 76,609.5 88.2,602.4 "/>
<polygon class="st2" points="114.6,593.9 111.5,595.7 111.5,591.2 114.6,589.4 "/>
<polygon class="st2" points="95.9,600.1 76,611.7 76,616.2 95.9,604.6 "/>
<polygon class="st6" points="60.8,514.9 19.4,491.1 19.4,493.8 60.8,517.7 "/>
<polygon class="st6" points="60.8,524.5 19.4,500.6 19.4,503.4 60.8,527.3 "/>
<polygon class="st6" points="60.8,548 19.4,524.1 19.4,526.9 60.8,550.7 "/>
<polygon class="st6" points="60.8,562.4 19.4,538.5 19.4,541.3 60.8,565.2 "/>
<polygon class="st6" points="60.8,571.5 19.4,547.6 19.4,550.3 60.8,574.2 "/>
<polygon class="st6" points="60.8,594.9 19.4,571.1 19.4,573.8 60.8,597.7 "/>
<polygon class="st6" points="60.8,608.5 19.4,584.6 19.4,587.4 60.8,611.2 "/>
<path class="st6" d="M22.5,462L22.5,462l-0.1,4.1c0,0.1,0,0.2,0,0.2v0.1c0,0.1,0,0.1,0.1,0.2l0,0l0,0c0,0.1,0.1,0.1,0.1,0.2l0,0
	c0.1,0.1,0.1,0.2,0.2,0.2c0,0,0,0,0.1,0.1s0.1,0.1,0.2,0.2c0,0,0.1,0,0.1,0.1c0.1,0.1,0.2,0.1,0.3,0.2l41.2,24
	c0.2,0.1,0.4,0.2,0.6,0.3c0.1,0,0.2,0,0.2,0.1c0.2,0.1,0.3,0.1,0.5,0.1c0.1,0,0.2,0,0.3,0.1c0.1,0,0.3,0.1,0.4,0.1
	c0.1,0,0.2,0,0.3,0s0.3,0,0.4,0l0,0c0.1,0,0.3,0,0.4,0c0.1,0,0.2,0,0.3,0s0.3,0,0.4-0.1c0.1,0,0.2,0,0.3-0.1c0.2,0,0.3-0.1,0.5-0.1
	c0.1,0,0.2,0,0.2-0.1c0.2-0.1,0.4-0.2,0.6-0.3l41.5-24c0.8-0.5,1.2-1,1.2-1.6l0.1-4.1c0-0.6-0.4-1.2-1.2-1.6l-41.2-24
	c-1.5-0.9-4.1-0.9-5.6,0l-41.5,24C22.9,460.8,22.5,461.4,22.5,462z M22.5,462.2C22.5,462.2,22.5,462.3,22.5,462.2
	C22.5,462.3,22.5,462.2,22.5,462.2z M23,463.1L23,463.1L23,463.1z M23.2,463.3C23.3,463.3,23.3,463.3,23.2,463.3
	C23.3,463.3,23.3,463.3,23.2,463.3z M22.6,462.5L22.6,462.5L22.6,462.5z M113,462.6C113,462.6,113,462.5,113,462.6
	C113,462.5,113,462.6,113,462.6z M113.2,462.2v-0.1C113.2,462.1,113.2,462.1,113.2,462.2z M113.1,462.4v-0.1V462.4z M112.7,463
	C112.7,463,112.8,463,112.7,463C112.8,463,112.7,463,112.7,463z M112.9,462.8L112.9,462.8L112.9,462.8z M112.3,463.4L112.3,463.4
	L112.3,463.4z M112.5,463.2C112.6,463.2,112.6,463.2,112.5,463.2C112.6,463.2,112.6,463.2,112.5,463.2z"/>
<path id="SVGID_31_" class="st7" d="M22.5,462l-0.1,4.1c0,0.6,0.4,1.2,1.2,1.6l0.1-4.1C22.9,463.1,22.5,462.5,22.5,462z"/>
<g>
	<defs>
		<path id="SVGID_00000033338634552584689090000002641693343676937608_" d="M22.5,462l-0.1,4.1c0,0.6,0.4,1.2,1.2,1.6l0.1-4.1
			C22.9,463.1,22.5,462.5,22.5,462z"/>
	</defs>
	<clipPath id="SVGID_00000158718357401090796240000002647071963139756928_">
		<use xlink:href="#SVGID_00000033338634552584689090000002641693343676937608_"  style="overflow:visible;"/>
	</clipPath>
	<path style="clip-path:url(#SVGID_00000158718357401090796240000002647071963139756928_);fill:#C6D5FA;" d="M22.5,462l-0.1,4.1
		c0,0.2,0,0.4,0.1,0.5l0.1-4.1C22.5,462.3,22.5,462.1,22.5,462z"/>
	<path style="clip-path:url(#SVGID_00000158718357401090796240000002647071963139756928_);fill:#C6D5FA;" d="M22.6,462.5l-0.1,4.1
		c0.2,0.4,0.5,0.8,1,1.1l0.1-4.1C23.1,463.3,22.8,462.9,22.6,462.5z"/>
</g>
<path id="SVGID_33_" class="st9" d="M113.1,466.1l0.1-4.1c0,0.6-0.4,1.2-1.2,1.6l-0.1,4.1C112.7,467.3,113.1,466.7,113.1,466.1z"/>
<g>
	<defs>
		<path id="SVGID_00000096017542473654654460000006230655617311296394_" d="M113.1,466.1l0.1-4.1c0,0.6-0.4,1.2-1.2,1.6l-0.1,4.1
			C112.7,467.3,113.1,466.7,113.1,466.1z"/>
	</defs>
	<clipPath id="SVGID_00000169534104006742193070000013345348175064200071_">
		<use xlink:href="#SVGID_00000096017542473654654460000006230655617311296394_"  style="overflow:visible;"/>
	</clipPath>
	<path style="clip-path:url(#SVGID_00000169534104006742193070000013345348175064200071_);fill:#DAE8FD;" d="M112,463.6l-0.1,4.1
		c0.8-0.5,1.2-1,1.2-1.6l0.1-4.1C113.2,462.5,112.8,463.1,112,463.6z"/>
</g>
<polygon class="st7" points="23.6,463.6 23.6,467.7 64.8,491.7 64.9,487.5 "/>
<polygon class="st9" points="70.5,487.5 70.4,491.7 112,467.7 112,463.6 "/>
<g>
	<defs>
		<path id="SVGID_00000145025112198121414570000012650603645236203405_" d="M64.9,487.5l-0.1,4.1c1.5,0.9,4.1,0.9,5.6,0l0.1-4.1
			C68.9,488.4,66.4,488.4,64.9,487.5z"/>
	</defs>
	<clipPath id="SVGID_00000033337444028897198030000000649947643083954579_">
		<use xlink:href="#SVGID_00000145025112198121414570000012650603645236203405_"  style="overflow:visible;"/>
	</clipPath>
	<path style="clip-path:url(#SVGID_00000033337444028897198030000000649947643083954579_);fill:#CDDCFB;" d="M64.9,487.5l-0.1,4.1
		c0.8,0.5,1.8,0.7,2.9,0.7l0.1-4.1C66.7,488.2,65.7,488,64.9,487.5z"/>
	<path style="clip-path:url(#SVGID_00000033337444028897198030000000649947643083954579_);fill:#D4E2FC;" d="M67.8,488.2l-0.1,4.1
		c1,0,2-0.2,2.7-0.7l0.1-4.1C69.7,488,68.8,488.2,67.8,488.2z"/>
</g>
<path class="st2" d="M23.7,460.3c-1.6,0.9-1.6,2.4,0,3.2l41.2,24c1.5,0.9,4.1,0.9,5.6,0l41.5-24c1.6-0.9,1.6-2.4,0-3.2l-41.2-24
	c-1.5-0.9-4.1-0.9-5.6,0L23.7,460.3z"/>
<path class="st9" d="M100,463.1l-1.9,1.1l-28.3,16.4c-1.1,0.7-3,0.7-4.1,0l-28.1-16.3l-1.9-1.1c-1.1-0.7-1.1-1.7,0-2.4l30.2-17.4
	c1.1-0.7,3-0.7,4.1,0l30,17.4C101.1,461.4,101.1,462.5,100,463.1z"/>
<path class="st7" d="M98,464.2l-28.2,16.4c-1.1,0.7-3,0.7-4.1,0l-28.1-16.3L65.9,448c1.1-0.7,3-0.7,4.1,0L98,464.2z"/>
<rect x="144.5" y="168.5" class="st0" width="3.7" height="249.5"/>
<polygon class="st0" points="68.6,464 66.9,464 66.9,391.3 67.3,391 223,301.4 223,375 221.2,375 221.2,304.4 68.6,392.3 "/>
<path class="st0" d="M72,462.3c-2.4-1.4-6.3-1.4-8.8,0c-2.4,1.4-2.4,3.7,0,5.1s6.3,1.4,8.8,0C74.4,466,74.4,463.7,72,462.3z"/>
<path class="st0" d="M152.8,417.9c-1.1-4.8-11.7-4.8-12.8,0C141.1,422.7,151.7,422.7,152.8,417.9z"/>
<path class="st0" d="M228.5,375c-1.1-4.8-11.7-4.8-12.8,0C216.8,379.8,227.4,379.8,228.5,375z"/>
<path class="st34" d="M237.3,607.1c4,2.3,4,6,0,8.3s-10.4,2.3-14.4,0s-4-6,0-8.3S233.3,604.8,237.3,607.1z"/>
<path class="st2" d="M231.9,610.2c1,0.6,1,1.5,0,2c-1,0.6-2.5,0.6-3.5,0s-1-1.5,0-2C229.3,609.7,230.9,609.7,231.9,610.2z"/>
<path class="st34" d="M334.3,552.2c4,2.3,4,6,0,8.3s-10.4,2.3-14.4,0s-4-6,0-8.3C323.9,549.9,330.4,549.9,334.3,552.2z"/>
<path class="st2" d="M328.9,555.4c1,0.6,1,1.5,0,2c-1,0.6-2.5,0.6-3.5,0c-1-0.6-1-1.5,0-2C326.3,554.8,327.9,554.8,328.9,555.4z"/>
<path class="st2" d="M292.2,377.5c0,1.1-0.9,2-2,2c-1.1,0-2-0.9-2-2s0.9-2,2-2C291.3,375.5,292.2,376.3,292.2,377.5z"/>
<path class="st2" d="M4,543.1c0,1.1-0.9,2-2,2s-2-0.9-2-2c0-1.1,0.9-2,2-2C3.1,541,4,541.9,4,543.1z"/>
<path class="st35" d="M86.6,543.6c0,1-0.8,1.9-1.9,1.9c-1,0-1.9-0.8-1.9-1.9c0-1,0.8-1.9,1.9-1.9S86.6,542.5,86.6,543.6z"/>
<path class="st36" d="M86.6,555.7c0,1-0.8,1.9-1.9,1.9c-1,0-1.9-0.8-1.9-1.9c0-1,0.8-1.9,1.9-1.9S86.6,554.7,86.6,555.7z"/>
<path class="st37" d="M86.7,567.9c0,1.1-0.9,1.9-1.9,1.9c-1.1,0-1.9-0.9-1.9-1.9c0-1.1,0.9-1.9,1.9-1.9S86.7,566.8,86.7,567.9z"/>
<path class="st38" d="M86.7,580.1c0,1.1-0.9,1.9-1.9,1.9c-1.1,0-1.9-0.9-1.9-1.9c0-1.1,0.9-1.9,1.9-1.9
	C85.8,578.1,86.7,579,86.7,580.1z"/>
<path class="st39" d="M86.7,592.3c0,1.1-0.9,2-2,2s-2-0.9-2-2s0.9-2,2-2S86.7,591.2,86.7,592.3z"/>
<path class="st34" d="M86.7,604.4c0,1.1-0.9,2-2,2s-2-0.9-2-2s0.9-2,2-2C85.9,602.4,86.7,603.3,86.7,604.4z"/>
<path class="st2" d="M86.8,616.6c0,1.1-0.9,2-2,2s-2-0.9-2-2s0.9-2,2-2S86.8,615.5,86.8,616.6z"/>
<path class="st35" d="M55.4,324.9c0,1-0.8,1.9-1.9,1.9c-1,0-1.9-0.8-1.9-1.9c0-1,0.8-1.9,1.9-1.9C54.6,323,55.4,323.8,55.4,324.9z"
	/>
<path class="st36" d="M55.5,337.1c0,1-0.8,1.9-1.9,1.9c-1,0-1.9-0.8-1.9-1.9c0-1,0.8-1.9,1.9-1.9C54.6,335.2,55.5,336,55.5,337.1z"
	/>
<path class="st37" d="M55.5,349.2c0,1.1-0.9,1.9-1.9,1.9c-1.1,0-1.9-0.9-1.9-1.9c0-1.1,0.9-1.9,1.9-1.9
	C54.6,347.3,55.5,348.2,55.5,349.2z"/>
<path id="SVGID_37_" class="st40" d="M208.7,43.8l19.7,11.5c-6.6-3.8-15.7-3.3-25.8,2.5c-2.1,1.2-4.2,2.7-6.3,4.3l-19.7-11.5
	c2-1.6,4.1-3,6.3-4.3C193,40.6,202.1,40,208.7,43.8z"/>
<g>
	<defs>
		<path id="SVGID_00000070824563997073560440000017679115089500311211_" d="M208.7,43.8l19.7,11.5c-6.6-3.8-15.7-3.3-25.8,2.5
			c-2.1,1.2-4.2,2.7-6.3,4.3l-19.7-11.5c2-1.6,4.1-3,6.3-4.3C193,40.6,202.1,40,208.7,43.8z"/>
	</defs>
	<clipPath id="SVGID_00000060732315810498053740000000243984630785900675_">
		<use xlink:href="#SVGID_00000070824563997073560440000017679115089500311211_"  style="overflow:visible;"/>
	</clipPath>
	<path style="clip-path:url(#SVGID_00000060732315810498053740000000243984630785900675_);fill:#BECEF9;" d="M196.3,62.1l-19.7-11.5
		c2-1.6,4.1-3,6.3-4.3c3.8-2.2,7.5-3.7,11-4.4l19.7,11.5c-3.5,0.7-7.2,2.2-11,4.4C200.5,59.1,198.4,60.5,196.3,62.1z"/>
</g>
<g>
	<defs>
		<path id="SVGID_00000013872467626239793010000007381642276610558379_" d="M208.7,43.8l19.7,11.5c-6.6-3.8-15.7-3.3-25.8,2.5
			c-2.1,1.2-4.2,2.7-6.3,4.3l-19.7-11.5c2-1.6,4.1-3,6.3-4.3C193,40.6,202.1,40,208.7,43.8z"/>
	</defs>
	<clipPath id="SVGID_00000103257386417206968780000017913896644577736108_">
		<use xlink:href="#SVGID_00000013872467626239793010000007381642276610558379_"  style="overflow:visible;"/>
	</clipPath>
	<path style="clip-path:url(#SVGID_00000103257386417206968780000017913896644577736108_);fill:#BECEF9;" d="M213.6,53.4L193.9,42
		c5.3-1.1,10.1-0.6,14.1,1.5L227.7,55C223.8,52.9,219,52.3,213.6,53.4z"/>
</g>
<g>
	<defs>
		<path id="SVGID_00000142866914081334691340000003461737857849337245_" d="M208.7,43.8l19.7,11.5c-6.6-3.8-15.7-3.3-25.8,2.5
			c-2.1,1.2-4.2,2.7-6.3,4.3l-19.7-11.5c2-1.6,4.1-3,6.3-4.3C193,40.6,202.1,40,208.7,43.8z"/>
	</defs>
	<clipPath id="SVGID_00000062176353078515220840000000245367376366241444_">
		<use xlink:href="#SVGID_00000142866914081334691340000003461737857849337245_"  style="overflow:visible;"/>
	</clipPath>
	<path style="clip-path:url(#SVGID_00000062176353078515220840000000245367376366241444_);fill:#BECEF9;" d="M227.7,54.9L208,43.4
		c0.2,0.1,0.4,0.2,0.6,0.4l19.7,11.5C228.2,55.2,228,55.1,227.7,54.9z"/>
</g>
<path id="SVGID_39_" class="st40" d="M162.5,30.1l19.7,11.5c-9.9-5.7-23.5-4.9-38.6,3.8l-19.7-11.5
	C138.9,25.2,152.6,24.4,162.5,30.1z"/>
<g>
	<defs>
		<path id="SVGID_00000053517295767293863370000015921289070069417132_" d="M162.5,30.1l19.7,11.5c-9.9-5.7-23.5-4.9-38.6,3.8
			l-19.7-11.5C138.9,25.2,152.6,24.4,162.5,30.1z"/>
	</defs>
	<clipPath id="SVGID_00000111165778339338774430000015173654286215400080_">
		<use xlink:href="#SVGID_00000053517295767293863370000015921289070069417132_"  style="overflow:visible;"/>
	</clipPath>
	<path style="clip-path:url(#SVGID_00000111165778339338774430000015173654286215400080_);fill:#BECEF9;" d="M143.6,45.3l-19.7-11.5
		c5.8-3.3,11.3-5.5,16.5-6.6l19.7,11.5C154.9,39.9,149.3,42,143.6,45.3z"/>
</g>
<g>
	<defs>
		<path id="SVGID_00000036946889541521306690000015988574838459413405_" d="M162.5,30.1l19.7,11.5c-9.9-5.7-23.5-4.9-38.6,3.8
			l-19.7-11.5C138.9,25.2,152.6,24.4,162.5,30.1z"/>
	</defs>
	<clipPath id="SVGID_00000106851189170962652450000016711250038871973014_">
		<use xlink:href="#SVGID_00000036946889541521306690000015988574838459413405_"  style="overflow:visible;"/>
	</clipPath>
	<path style="clip-path:url(#SVGID_00000106851189170962652450000016711250038871973014_);fill:#BECEF9;" d="M160.1,38.8l-19.7-11.5
		c8-1.7,15.2-0.8,21.2,2.3l19.7,11.5C175.3,37.9,168.1,37.1,160.1,38.8z"/>
</g>
<g>
	<defs>
		<path id="SVGID_00000053541749437191545190000001152649853803630752_" d="M162.5,30.1l19.7,11.5c-9.9-5.7-23.5-4.9-38.6,3.8
			l-19.7-11.5C138.9,25.2,152.6,24.4,162.5,30.1z"/>
	</defs>
	<clipPath id="SVGID_00000011010147866186417360000013447359009905635230_">
		<use xlink:href="#SVGID_00000053541749437191545190000001152649853803630752_"  style="overflow:visible;"/>
	</clipPath>
	<path style="clip-path:url(#SVGID_00000011010147866186417360000013447359009905635230_);fill:#BECEF9;" d="M181.2,41l-19.7-11.5
		c0.3,0.2,0.6,0.3,1,0.5l19.7,11.5C181.9,41.4,181.5,41.2,181.2,41z"/>
</g>
<path id="SVGID_41_" class="st40" d="M91,122.9l-19.7-11.5c5.8-30.5,27.1-62.9,52.5-77.5l19.7,11.5C118.2,60,96.9,92.4,91,122.9z"/>
<g>
	<defs>
		<path id="SVGID_00000103255689312837447220000010968467723822180782_" d="M91,122.9l-19.7-11.5c5.8-30.5,27.1-62.9,52.5-77.5
			l19.7,11.5C118.2,60,96.9,92.4,91,122.9z"/>
	</defs>
	<clipPath id="SVGID_00000062899182132197148930000010810528618355945146_">
		<use xlink:href="#SVGID_00000103255689312837447220000010968467723822180782_"  style="overflow:visible;"/>
	</clipPath>
	<path style="clip-path:url(#SVGID_00000062899182132197148930000010810528618355945146_);fill:#BECEF9;" d="M91,122.9l-19.7-11.5
		c1.6-8.3,4.3-16.7,8-24.9L99,98C95.4,106.1,92.6,114.6,91,122.9z"/>
</g>
<g>
	<defs>
		<path id="SVGID_00000160175075746718425120000002960048314142556089_" d="M91,122.9l-19.7-11.5c5.8-30.5,27.1-62.9,52.5-77.5
			l19.7,11.5C118.2,60,96.9,92.4,91,122.9z"/>
	</defs>
	<clipPath id="SVGID_00000176039050315205230740000009330880110090820993_">
		<use xlink:href="#SVGID_00000160175075746718425120000002960048314142556089_"  style="overflow:visible;"/>
	</clipPath>
	<path style="clip-path:url(#SVGID_00000176039050315205230740000009330880110090820993_);fill:#BECEF9;" d="M99,98L79.3,86.5
		c4.7-10.6,11-20.7,18.3-29.6l19.7,11.5C110,77.2,103.7,87.4,99,98z"/>
</g>
<g>
	<defs>
		<path id="SVGID_00000021108685438490205770000008463172417402637728_" d="M91,122.9l-19.7-11.5c5.8-30.5,27.1-62.9,52.5-77.5
			l19.7,11.5C118.2,60,96.9,92.4,91,122.9z"/>
	</defs>
	<clipPath id="SVGID_00000082327907453976361450000006090362606988124560_">
		<use xlink:href="#SVGID_00000021108685438490205770000008463172417402637728_"  style="overflow:visible;"/>
	</clipPath>
	<path style="clip-path:url(#SVGID_00000082327907453976361450000006090362606988124560_);fill:#BECEF9;" d="M117.3,68.3L97.6,56.8
		c7.8-9.5,16.7-17.5,26.3-23l19.7,11.5C134,50.9,125,58.9,117.3,68.3z"/>
</g>
<path id="SVGID_43_" class="st40" d="M59.2,211.6l-19.7-11.5c-6.5-3.8-10.5-11.8-10.6-23.2C28.8,153.9,45,126,65,114.4
	c2.1-1.2,4.3-2.2,6.3-3L91,122.9c-2,0.8-4.1,1.8-6.3,3c-20,11.5-36.1,39.5-36.1,62.5C48.7,199.8,52.7,207.8,59.2,211.6z"/>
<g>
	<defs>
		<path id="SVGID_00000145771875633241779300000010073254591676964277_" d="M59.2,211.6l-19.7-11.5c-6.5-3.8-10.5-11.8-10.6-23.2
			C28.8,153.9,45,126,65,114.4c2.1-1.2,4.3-2.2,6.3-3L91,122.9c-2,0.8-4.1,1.8-6.3,3c-20,11.5-36.1,39.5-36.1,62.5
			C48.7,199.8,52.7,207.8,59.2,211.6z"/>
	</defs>
	<clipPath id="SVGID_00000134232221612994333530000011880601797276688564_">
		<use xlink:href="#SVGID_00000145771875633241779300000010073254591676964277_"  style="overflow:visible;"/>
	</clipPath>
	<path style="clip-path:url(#SVGID_00000134232221612994333530000011880601797276688564_);fill:#BECEF9;" d="M59.2,211.6l-19.7-11.5
		c-6.5-3.8-10.5-11.8-10.6-23.2c0-8.8,2.3-18.3,6.4-27.4L55,161c-4,9.1-6.4,18.6-6.4,27.4C48.7,199.8,52.7,207.8,59.2,211.6z"/>
</g>
<g>
	<defs>
		<path id="SVGID_00000147909373874015946720000005338717641221344417_" d="M59.2,211.6l-19.7-11.5c-6.5-3.8-10.5-11.8-10.6-23.2
			C28.8,153.9,45,126,65,114.4c2.1-1.2,4.3-2.2,6.3-3L91,122.9c-2,0.8-4.1,1.8-6.3,3c-20,11.5-36.1,39.5-36.1,62.5
			C48.7,199.8,52.7,207.8,59.2,211.6z"/>
	</defs>
	<clipPath id="SVGID_00000098937338327421494000000011230628874569940884_">
		<use xlink:href="#SVGID_00000147909373874015946720000005338717641221344417_"  style="overflow:visible;"/>
	</clipPath>
	<path style="clip-path:url(#SVGID_00000098937338327421494000000011230628874569940884_);fill:#BECEF9;" d="M55,161l-19.7-11.5
		c3.1-7.1,7.3-13.8,12.2-19.8l19.7,11.5C62.4,147.1,58.2,153.9,55,161z"/>
</g>
<g>
	<defs>
		<path id="SVGID_00000029025352515143083170000009989020682680240540_" d="M59.2,211.6l-19.7-11.5c-6.5-3.8-10.5-11.8-10.6-23.2
			C28.8,153.9,45,126,65,114.4c2.1-1.2,4.3-2.2,6.3-3L91,122.9c-2,0.8-4.1,1.8-6.3,3c-20,11.5-36.1,39.5-36.1,62.5
			C48.7,199.8,52.7,207.8,59.2,211.6z"/>
	</defs>
	<clipPath id="SVGID_00000010310904436275617270000005831256345647265688_">
		<use xlink:href="#SVGID_00000029025352515143083170000009989020682680240540_"  style="overflow:visible;"/>
	</clipPath>
	<path style="clip-path:url(#SVGID_00000010310904436275617270000005831256345647265688_);fill:#BECEF9;" d="M67.2,141.2l-19.7-11.5
		c5.2-6.3,11.2-11.7,17.5-15.3c2.1-1.2,4.3-2.2,6.3-3L91,122.9c-2,0.8-4.1,1.8-6.3,3C78.4,129.6,72.4,134.9,67.2,141.2z"/>
</g>
<path class="st2" d="M143.6,45.3c25.4-14.7,46.8-6.9,52.8,16.7c2-1.6,4.1-3,6.3-4.3c20-11.5,36.2-2.3,36.3,20.7
	c0.1,21.5-14.1,47.4-32.3,60.1L85.1,208.9c-20,11.5-36.2,2.3-36.3-20.7c-0.1-23,16.1-50.9,36.1-62.5c2.1-1.2,4.3-2.2,6.3-3
	C96.9,92.4,118.2,60,143.6,45.3z"/>
<path class="st53" d="M123.6,125.4c-0.4,0.2-0.8,0.4-1.2,0.5c-2,0.4-3.1-1.5-2.4-4.2c3.1-12.4,10.5-24.6,19.8-32.8
	c13.7-12,27.7-12.2,33.3-0.6c0.8,1.7,0,4.9-2,6.9c-1.9,2.1-4.2,2.4-5,0.6c-4.1-8.5-14.4-8.3-24.4,0.4c-6.8,6-12.3,15-14.5,24
	C126.7,122.5,125.2,124.5,123.6,125.4z"/>
<polygon class="st53" points="114.9,122.9 124.7,136.2 134,111.6 "/>
<path class="st53" d="M147.9,152.3c-10.5,6.1-20.5,5.1-25.5-3.1c-1-1.6-0.2-4.7,1.7-6.9s4.2-2.7,5.1-1.1c4.4,7.4,14.4,6.8,23.8-1.5
	c7-6.1,12.4-15.3,14.6-24.5c0.6-2.7,2.8-5.2,4.8-5.6c2-0.4,3.1,1.4,2.5,4.1c-3,12.6-10.5,25-20,33.4
	C152.6,149.3,150.2,151,147.9,152.3z"/>
<polygon class="st53" points="180,113.5 171.7,98.5 161,122.9 "/>
<polygon class="st54" points="176.1,315.1 180.3,312.7 180.3,307.8 176.1,310.3 "/>
<polygon class="st55" points="187.6,318.7 191.8,316.3 191.8,311.5 187.6,313.9 "/>
</svg>
