<?xml version="1.0" encoding="utf-8"?>
<!-- Generator: Adobe Illustrator 26.0.1, SVG Export Plug-In . SVG Version: 6.00 Build 0)  -->
<svg version="1.1" id="Layer_1" xmlns="http://www.w3.org/2000/svg" xmlns:xlink="http://www.w3.org/1999/xlink" x="0px" y="0px"
	 viewBox="0 0 35.2 22.8" style="enable-background:new 0 0 35.2 22.8;" xml:space="preserve">
<style type="text/css">
	.st0{fill:none;stroke:#209FDA;stroke-width:0.75;stroke-miterlimit:10;stroke-dasharray:1,1;}
	.st1{fill:none;stroke:#209FDA;stroke-width:0.75;stroke-miterlimit:10;}
	.st2{fill:#209FDA;}
	.st3{fill:none;stroke:#209FDA;stroke-width:0.25;stroke-dasharray:4.31,4.31;}
	.st4{fill:#3DB0E5;}
	.st5{fill:#0A88C5;}
</style>
<g>
	<path class="st0" d="M16,18.4c4.8,0,8.6-3.9,8.6-8.6S20.8,1.1,16,1.1S7.4,5,7.4,9.8S11.3,18.4,16,18.4z"/>
	<path class="st0" d="M25.8,17.4c2.6,0,4.8-2.1,4.8-4.8c0-2.6-2.1-4.8-4.8-4.8S21,9.9,21,12.6C21,15.2,23.1,17.4,25.8,17.4z"/>
	<path class="st0" d="M34.3,18.4c0.2-2.1-1.3-3.9-3.4-4.1c-2.1-0.2-3.9,1.3-4.1,3.4c-0.2,2.1,1.3,3.9,3.4,4.1
		C32.2,22,34.1,20.4,34.3,18.4z"/>
	<path class="st0" d="M6.8,21.8c3.1,0,5.6-2.5,5.6-5.6s-2.5-5.6-5.6-5.6S1.1,13,1.1,16.2S3.7,21.8,6.8,21.8z"/>
	<path class="st1" d="M34.3,18c0-1-0.4-2-1.1-2.7c-0.7-0.7-1.7-1.1-2.7-1.1c-0.1,0-0.2,0-0.3,0c0.3-0.8,0.4-1.7,0.2-2.6
		c-0.2-0.9-0.6-1.7-1.2-2.3c-0.6-0.7-1.4-1.1-2.2-1.4c-0.9-0.2-1.8-0.3-2.6,0C24,5.8,22.8,4,21.1,2.8c-1.7-1.2-3.9-1.8-6-1.6
		C13,1.4,11,2.4,9.6,4C8.2,5.6,7.4,7.6,7.4,9.8c0,0.3,0,0.5,0,0.8c-0.2,0-0.4,0-0.7,0c-1.5,0-2.9,0.6-3.9,1.6s-1.6,2.5-1.7,3.9
		c0,1.5,0.6,2.9,1.6,4c1,1.1,2.4,1.7,3.9,1.7h24.1l0.6-0.1c0.8-0.2,1.6-0.7,2.1-1.3C34,19.7,34.3,18.9,34.3,18z"/>
	<path class="st2" d="M10.5,9.3l5.3-1.1L21,9.3l-5.2,1.3L10.5,9.3z"/>
	<path class="st2" d="M15.4,6.6l1.5-1.5l-0.4-0.4l-1.1,1.1l-0.6-0.6l-0.4,0.4 M14.4,7.4c-0.4,0-0.7-0.1-1-0.4C13.1,6.7,13,6.4,13,6
		c0-0.3,0.1-0.6,0.3-0.9c0.2-0.3,0.5-0.4,0.8-0.5c0.1-0.4,0.3-0.7,0.7-1c0.3-0.3,0.7-0.4,1.1-0.4c0.5,0,1,0.2,1.3,0.5
		c0.4,0.4,0.5,0.8,0.5,1.3c0.3,0,0.6,0.2,0.8,0.4c0.2,0.2,0.3,0.5,0.3,0.8c0,0.3-0.1,0.6-0.3,0.8c-0.2,0.2-0.5,0.3-0.8,0.3H14.4z"/>
	<line class="st3" x1="14.1" y1="6.6" x2="10.9" y2="8.9"/>
	<line class="st3" x1="17.3" y1="6.5" x2="20.7" y2="8.9"/>
	<path class="st4" d="M10.5,9.9V9.3l5.3,1.3v0.8L10.5,9.9z"/>
	<path class="st5" d="M21,9.9V9.3l-5.2,1.3v0.8L21,9.9z"/>
</g>
</svg>
