<svg width="35" height="35" viewBox="0 0 35 35" fill="none" xmlns="http://www.w3.org/2000/svg">
<path fill-rule="evenodd" clip-rule="evenodd" d="M16.6469 6.52168L12.6741 10.2628C12.4816 10.4066 12.2407 10.4774 11.9973 10.4616C11.754 10.4458 11.5252 10.3445 11.3546 10.177C11.184 10.0095 11.0835 9.78759 11.0722 9.55348C11.061 9.31937 11.1397 9.08946 11.2935 8.90758L17.6401 2.85693L23.9767 8.90758C24.0712 8.99405 24.1472 9.09758 24.2001 9.21225C24.253 9.32691 24.2819 9.45047 24.2851 9.57587C24.2884 9.70127 24.2659 9.82605 24.2189 9.94309C24.1719 10.0601 24.1014 10.1671 24.0115 10.258C23.9215 10.3489 23.8137 10.4218 23.6944 10.4727C23.575 10.5235 23.4465 10.5513 23.316 10.5544C23.1855 10.5575 23.0556 10.5359 22.9338 10.4907C22.812 10.4456 22.7006 10.3779 22.6061 10.2914L18.6333 6.52168V17.974C18.6333 18.2271 18.5286 18.4699 18.3424 18.6488C18.1561 18.8278 17.9035 18.9284 17.6401 18.9284C17.3767 18.9284 17.124 18.8278 16.9378 18.6488C16.7515 18.4699 16.6469 18.2271 16.6469 17.974V6.52168ZM30.2005 13.8221C30.079 13.4308 29.831 13.0896 29.4945 12.851C29.158 12.6124 28.7517 12.4895 28.3378 12.5012H20.604V18.2861C20.604 19.0532 20.2958 19.7889 19.7471 20.3313C19.1984 20.8738 18.4542 21.1785 17.6783 21.1785C16.9023 21.1785 16.1582 20.8738 15.6095 20.3313C15.0608 19.7889 14.7525 19.0532 14.7525 18.2861V12.5012H7.01882C6.612 12.4854 6.21103 12.601 5.87667 12.8307C5.54231 13.0603 5.29276 13.3915 5.16585 13.7739C2.91303 19.9058 2.30837 21.5931 2.14258 22.1426H23.0216C24.2554 21.0325 25.8879 20.3569 27.6783 20.3569C29.4686 20.3569 31.1012 21.0325 32.335 22.1426H33.214C33.058 21.5931 32.4436 19.9155 30.2005 13.8221ZM21.4087 24.2855C20.9636 25.203 20.714 26.233 20.714 27.3212C20.714 29.02 21.3223 30.5767 22.3328 31.7855H4.08454C3.5695 31.7855 3.07556 31.588 2.71137 31.2363C2.34718 30.8847 2.14258 30.4078 2.14258 29.9105V24.2855H21.4087Z" fill="#3D80CC"/>
<path d="M28.036 28.4724C27.7195 28.4724 27.4487 28.3597 27.2235 28.1341C26.998 27.9089 26.8852 27.6381 26.8852 27.3216C26.8852 27.0052 26.998 26.7342 27.2235 26.5086C27.4487 26.2834 27.7195 26.1708 28.036 26.1708C28.3525 26.1708 28.6235 26.2834 28.849 26.5086C29.0742 26.7342 29.1868 27.0052 29.1868 27.3216C29.1868 27.6381 29.0742 27.9089 28.849 28.1341C28.6235 28.3597 28.3525 28.4724 28.036 28.4724ZM28.036 32.5002C26.703 32.5002 25.5474 32.0614 24.5692 31.1837C23.5911 30.3064 23.03 29.2109 22.8862 27.897H24.0658C24.2 28.8944 24.6435 29.7191 25.3961 30.3712C26.1491 31.0234 27.029 31.3494 28.036 31.3494C29.158 31.3494 30.1097 30.9585 30.8911 30.1768C31.6729 29.3954 32.0638 28.4437 32.0638 27.3216C32.0638 26.1996 31.6729 25.2477 30.8911 24.4659C30.1097 23.6846 29.158 23.2939 28.036 23.2939C27.3743 23.2939 26.7557 23.4473 26.1803 23.7542C25.6049 24.0611 25.1206 24.483 24.7275 25.0201H26.3098V26.1708H22.8574V22.7185H24.0082V24.0706C24.4973 23.4569 25.0944 22.9822 25.7994 22.6465C26.5041 22.3109 27.2496 22.1431 28.036 22.1431C28.7552 22.1431 29.429 22.2796 30.0574 22.5527C30.6853 22.8263 31.2319 23.1955 31.6972 23.6604C32.1622 24.1257 32.5314 24.6723 32.8049 25.3003C33.078 25.9286 33.2146 26.6024 33.2146 27.3216C33.2146 28.0409 33.078 28.7145 32.8049 29.3424C32.5314 29.9708 32.1622 30.5174 31.6972 30.9823C31.2319 31.4476 30.6853 31.817 30.0574 32.0905C29.429 32.3636 28.7552 32.5002 28.036 32.5002Z" fill="#3D80CC" stroke="#3D80CC" stroke-width="0.5"/>
</svg>
