<svg width="35" height="35" viewBox="0 0 35 35" fill="none" xmlns="http://www.w3.org/2000/svg">
<path fill-rule="evenodd" clip-rule="evenodd" d="M4 9.66667C4 5.98333 10.0413 3 17.5 3C24.9587 3 31 5.98333 31 9.66667C31 13.35 24.9587 16.3333 17.5 16.3333C10.0413 16.3333 4 13.35 4 9.66667ZM4 18V13C4 16.6833 10.0413 19.6667 17.5 19.6667C18.1375 19.6667 18.7647 19.6449 19.3786 19.6027C18.0874 20.9426 17.2321 22.7054 17.0407 24.6629C9.79481 24.5434 4 21.6074 4 18ZM17.3735 27.9997C17.9893 30.0042 19.3264 31.6929 21.0819 32.763C19.9413 32.9175 18.7403 33 17.5 33C10.0413 33 4 30.0167 4 26.3333V21.3333C4 24.9958 9.97307 27.9662 17.3735 27.9997ZM30.8742 18.9143C29.9811 18.1846 28.9368 17.6329 27.7955 17.3136C29.7944 16.1511 31 14.6454 31 13V18C31 18.3102 30.9572 18.6154 30.8742 18.9143Z" fill="#3D80CC"/>
<path d="M29.4286 28.3333V23H28.5714V29.2222H32V28.3333H29.4286ZM26.8571 23H25.1429C24.9155 23 24.6975 23.0937 24.5368 23.2603C24.376 23.427 24.2857 23.6531 24.2857 23.8889V28.3333C24.2857 28.5691 24.376 28.7952 24.5368 28.9619C24.6975 29.1286 24.9155 29.2222 25.1429 29.2222H25.5714V30.1111C25.5714 30.3469 25.6617 30.573 25.8225 30.7397C25.9832 30.9063 26.2012 31 26.4286 31H27.2857V30.1111H26.4286V29.2222H26.8571C27.0845 29.2222 27.3025 29.1286 27.4632 28.9619C27.624 28.7952 27.7143 28.5691 27.7143 28.3333V23.8889C27.7143 23.6531 27.624 23.427 27.4632 23.2603C27.3025 23.0937 27.0845 23 26.8571 23ZM25.1429 28.3333V23.8889H26.8571V28.3333H25.1429ZM22.5714 29.2222H20V28.3333H22.5714V26.5556H20.8571C20.6298 26.5556 20.4118 26.4619 20.2511 26.2952C20.0903 26.1285 20 25.9024 20 25.6667V23.8889C20 23.6531 20.0903 23.427 20.2511 23.2603C20.4118 23.0937 20.6298 23 20.8571 23H23.4286V23.8889H20.8571V25.6667H22.5714C22.7988 25.6667 23.0168 25.7603 23.1775 25.927C23.3383 26.0937 23.4286 26.3198 23.4286 26.5556V28.3333C23.4286 28.5691 23.3383 28.7952 23.1775 28.9619C23.0168 29.1286 22.7988 29.2222 22.5714 29.2222Z" fill="#3D80CC"/>
</svg>
