<svg width="35" height="35" viewBox="0 0 35 35" fill="none" xmlns="http://www.w3.org/2000/svg">
<path d="M27.5 11.2003H7.5V8.6573H27.5V11.2003ZM25 3.57129H10V6.1143H25V3.57129ZM15.39 27.857L11.265 23.661L13.015 21.8809L15.39 24.2968L22.015 17.5578L23.765 19.3379L15.39 27.857Z" fill="#3D80CC"/>
<path d="M30 13.5713H5C4.33696 13.5713 3.70107 13.8401 3.23223 14.3185C2.76339 14.7969 2.5 15.4457 2.5 16.1223L2.5 28.8774C2.5 29.554 2.76339 30.2028 3.23223 30.6813C3.70107 31.1597 4.33696 31.4284 5 31.4284H30C30.663 31.4284 31.2989 31.1597 31.7678 30.6813C32.2366 30.2028 32.5 29.554 32.5 28.8774V16.1223C32.5 15.4457 32.2366 14.7969 31.7678 14.3185C31.2989 13.8401 30.663 13.5713 30 13.5713ZM30 28.8774H5V16.1223H30V28.8774Z" fill="#3D80CC"/>
</svg>
