<svg width="35" height="35" viewBox="0 0 35 35" fill="none" xmlns="http://www.w3.org/2000/svg">
<g clip-path="url(#clip0_778_3088)">
<path d="M28.5377 17.5052C26.8764 13.119 22.6434 10 17.685 10C12.7266 10 8.49358 13.1154 6.83231 17.5015C3.72377 18.3185 1.42773 21.1507 1.42773 24.5238C1.42773 28.536 4.67411 31.7857 8.67857 31.7857H26.6769C30.6814 31.7857 33.9277 28.536 33.9277 24.5238C33.9277 21.1579 31.639 18.3258 28.5377 17.5052ZM29.8544 27.7082C29.4381 28.1273 28.9429 28.4596 28.3975 28.6858C27.8521 28.912 27.2673 29.0277 26.6769 29.0262H8.67857C7.47796 29.0262 6.34989 28.5578 5.50112 27.7082C5.08237 27.2908 4.75041 26.7945 4.52441 26.2479C4.29841 25.7013 4.18286 25.1153 4.18443 24.5238C4.18443 23.5071 4.51451 22.5522 5.13477 21.7534C5.74217 20.9796 6.58317 20.423 7.53237 20.1667L8.90709 19.8072L9.41127 18.4783C9.72321 17.6504 10.1585 16.877 10.7062 16.1763C11.2469 15.4817 11.8874 14.8711 12.6069 14.3644C14.0977 13.3151 15.8532 12.7595 17.685 12.7595C19.5167 12.7595 21.2723 13.3151 22.7631 14.3644C23.4849 14.8727 24.1233 15.4827 24.6638 16.1763C25.2115 16.877 25.6468 17.654 25.9587 18.4783L26.4593 19.8036L27.8304 20.1667C29.7999 20.6932 31.171 22.4832 31.171 24.5238C31.171 25.7257 30.7031 26.8585 29.8544 27.7082Z" fill="#3D80CC"/>
<path d="M28.3979 5.39737C28.012 5.39737 27.6507 5.54707 27.3771 5.82064C27.1048 6.09422 26.9538 6.45555 26.9538 6.8414C26.9538 7.22724 27.1048 7.58857 27.3771 7.86215C27.6507 8.13443 28.012 8.28542 28.3979 8.28542C28.7837 8.28542 29.145 8.13443 29.4186 7.86215C29.6909 7.58857 29.8419 7.22724 29.8419 6.8414C29.8419 6.45555 29.6909 6.09422 29.4186 5.82064C29.285 5.68599 29.126 5.57924 28.9507 5.50657C28.7755 5.43391 28.5876 5.39679 28.3979 5.39737ZM33.7184 8.4364L32.8745 7.71504C32.9145 7.46985 32.9351 7.2195 32.9351 6.97044C32.9351 6.72138 32.9145 6.46974 32.8745 6.22585L33.7184 5.50448C33.7822 5.4499 33.8278 5.37721 33.8492 5.29607C33.8707 5.21493 33.8669 5.12919 33.8384 5.05024L33.8268 5.01669C33.5946 4.36719 33.2465 3.76515 32.7996 3.23973L32.7764 3.21263C32.7221 3.14882 32.6498 3.10295 32.5689 3.08106C32.4881 3.05918 32.4025 3.06231 32.3234 3.09004L31.2756 3.46298C30.8885 3.14553 30.4574 2.89518 29.9903 2.72096L29.7877 1.62537C29.7724 1.54283 29.7324 1.4669 29.6729 1.40766C29.6134 1.34843 29.5373 1.30868 29.4548 1.29372L29.4199 1.28727C28.7489 1.16596 28.0417 1.16596 27.3707 1.28727L27.3358 1.29372C27.2532 1.30868 27.1771 1.34843 27.1177 1.40766C27.0582 1.4669 27.0182 1.54283 27.0029 1.62537L26.799 2.72613C26.3363 2.90173 25.9052 3.15147 25.5227 3.46556L24.4671 3.09004C24.3881 3.06209 24.3025 3.05885 24.2216 3.08074C24.1406 3.10264 24.0683 3.14864 24.0142 3.21263L23.991 3.23973C23.5448 3.76571 23.1969 4.3676 22.9638 5.01669L22.9521 5.05024C22.8941 5.21155 22.9418 5.39221 23.0722 5.50448L23.9264 6.23359C23.8864 6.4762 23.8671 6.72396 23.8671 6.96915C23.8671 7.21692 23.8864 7.46469 23.9264 7.70471L23.0747 8.43382C23.011 8.4884 22.9653 8.56109 22.9439 8.64223C22.9225 8.72337 22.9262 8.80912 22.9547 8.88806L22.9663 8.92161C23.1999 9.57071 23.5445 10.1708 23.9935 10.6986L24.0168 10.7257C24.071 10.7895 24.1434 10.8354 24.2242 10.8572C24.3051 10.8791 24.3907 10.876 24.4697 10.8483L25.5253 10.4727C25.9099 10.7889 26.3383 11.0393 26.8016 11.2122L27.0055 12.3129C27.0208 12.3955 27.0608 12.4714 27.1203 12.5306C27.1797 12.5899 27.2558 12.6296 27.3384 12.6446L27.3732 12.651C28.0509 12.773 28.7449 12.773 29.4225 12.651L29.4573 12.6446C29.5399 12.6296 29.616 12.5899 29.6755 12.5306C29.735 12.4714 29.775 12.3955 29.7903 12.3129L29.9929 11.2173C30.46 11.0418 30.891 10.7928 31.2782 10.4753L32.326 10.8483C32.405 10.8762 32.4907 10.8795 32.5716 10.8576C32.6525 10.8357 32.7248 10.7897 32.779 10.7257L32.8022 10.6986C33.2513 10.1682 33.5958 9.57071 33.8294 8.92161L33.841 8.88806C33.8965 8.72804 33.8488 8.54867 33.7184 8.4364ZM28.3979 9.11002C27.1448 9.11002 26.1292 8.09443 26.1292 6.8414C26.1292 5.58836 27.1448 4.57277 28.3979 4.57277C29.6509 4.57277 30.6665 5.58836 30.6665 6.8414C30.6665 8.09443 29.6509 9.11002 28.3979 9.11002Z" fill="#3D80CC"/>
<path d="M21.5 17.5H13.5C13.2348 17.5 12.9804 17.6045 12.7929 17.7906C12.6054 17.9766 12.5 18.229 12.5 18.4921V20.4762C12.5 20.7393 12.6054 20.9916 12.7929 21.1777C12.9804 21.3637 13.2348 21.4683 13.5 21.4683H21.5C21.7652 21.4683 22.0196 21.3637 22.2071 21.1777C22.3946 20.9916 22.5 20.7393 22.5 20.4762V18.4921C22.5 18.229 22.3946 17.9766 22.2071 17.7906C22.0196 17.6045 21.7652 17.5 21.5 17.5ZM19 19.9802H18V18.9881H19V19.9802ZM21 19.9802H20V18.9881H21V19.9802ZM21.5 22.4603H13.5C13.2348 22.4603 12.9804 22.5648 12.7929 22.7509C12.6054 22.9369 12.5 23.1893 12.5 23.4524V25.4365C12.5 25.6996 12.6054 25.952 12.7929 26.138C12.9804 26.3241 13.2348 26.4286 13.5 26.4286H21.5C21.7652 26.4286 22.0196 26.3241 22.2071 26.138C22.3946 25.952 22.5 25.6996 22.5 25.4365V23.4524C22.5 23.1893 22.3946 22.9369 22.2071 22.7509C22.0196 22.5648 21.7652 22.4603 21.5 22.4603ZM19 24.9405H18V23.9484H19V24.9405ZM21 24.9405H20V23.9484H21V24.9405Z" fill="#3D80CC"/>
</g>
<defs>
<clipPath id="clip0_778_3088">
<rect width="35" height="35" fill="white"/>
</clipPath>
</defs>
</svg>
