<svg width="35" height="35" viewBox="0 0 35 35" fill="none" xmlns="http://www.w3.org/2000/svg">
<path d="M19.4595 3.31735L27.7947 7.33139C28.9208 7.8737 29.7387 8.8993 30.0169 10.1179L32.0755 19.1373C32.3536 20.3559 32.0617 21.6348 31.2824 22.612L25.5143 29.8451C24.735 30.8223 23.5531 31.3914 22.3032 31.3914H13.0518C11.8018 31.3914 10.62 30.8223 9.84066 29.8451L4.0725 22.612C3.29319 21.6348 3.00129 20.3559 3.27942 19.1373L5.33805 10.1179C5.61618 8.8993 6.43407 7.8737 7.5602 7.33139L15.8954 3.31735C17.0216 2.77504 18.3334 2.77504 19.4595 3.31735Z" stroke="#3D80CC" stroke-width="2.5"/>
<path d="M28.7521 19.8078C28.7301 19.8078 28.7301 19.8078 28.7521 19.8078H28.7301C28.7081 19.8078 28.6861 19.8078 28.6861 19.7859C28.6422 19.7859 28.5982 19.764 28.5542 19.764C28.4003 19.742 28.2684 19.7201 28.1365 19.7201C28.0706 19.7201 28.0046 19.7201 27.9167 19.6982H27.8947C27.433 19.6543 27.0592 19.6104 26.7075 19.5007C26.5536 19.4349 26.5096 19.3472 26.4656 19.2594C26.4656 19.2375 26.4437 19.2375 26.4437 19.2156L26.1579 19.1278C26.2898 18.1188 26.2458 17.0659 26.004 16.0349C25.7621 15.0039 25.3444 14.0387 24.7728 13.1613L24.9927 12.9639V12.92C24.9927 12.8103 25.0146 12.7006 25.1026 12.5909C25.3664 12.3496 25.6962 12.1522 26.0919 11.9109C26.1579 11.8671 26.2238 11.8451 26.2898 11.8013C26.4217 11.7354 26.5316 11.6696 26.6635 11.5819C26.6855 11.56 26.7295 11.538 26.7734 11.4941C26.7954 11.4722 26.8174 11.4722 26.8174 11.4503C27.1252 11.187 27.1912 10.7483 26.9713 10.4632C26.8614 10.3096 26.6635 10.2219 26.4656 10.2219C26.2898 10.2219 26.1359 10.2877 25.982 10.3974C25.96 10.4193 25.96 10.4193 25.938 10.4412C25.894 10.4632 25.8721 10.507 25.8281 10.529C25.7182 10.6386 25.6302 10.7264 25.5423 10.8361C25.4983 10.8799 25.4543 10.9458 25.3884 10.9896C25.0806 11.3187 24.7948 11.5819 24.509 11.7793C24.443 11.8232 24.3771 11.8451 24.3111 11.8451C24.2672 11.8451 24.2232 11.8451 24.1792 11.8232H24.1352L23.8714 11.9987C23.5856 11.6916 23.2778 11.4283 22.97 11.1651C21.6509 10.1341 20.046 9.49798 18.3752 9.34443L18.3532 9.05927C18.3312 9.03733 18.3312 9.03733 18.3092 9.01539C18.2433 8.94959 18.1553 8.88378 18.1333 8.73023C18.1114 8.37925 18.1553 7.98441 18.1993 7.54569V7.52376C18.1993 7.45795 18.2213 7.3702 18.2433 7.3044C18.2652 7.17278 18.2872 7.04117 18.3092 6.88761V6.756V6.69019C18.3092 6.29535 18.0014 5.96631 17.6277 5.96631C17.4518 5.96631 17.2759 6.05405 17.144 6.18567C17.0121 6.31728 16.9462 6.49277 16.9462 6.69019V6.73406V6.86568C16.9462 7.01923 16.9681 7.15085 17.0121 7.28246C17.0341 7.34827 17.0341 7.41408 17.0561 7.50182V7.52376C17.1 7.96247 17.166 8.35732 17.122 8.70829C17.1 8.86184 17.0121 8.92765 16.9462 8.99346C16.9242 9.01539 16.9242 9.01539 16.9022 9.03733L16.8802 9.3225C16.4845 9.36637 16.0887 9.41024 15.693 9.49798C14.0002 9.87089 12.5052 10.7264 11.34 11.9548L11.1201 11.8013H11.0762C11.0322 11.8013 10.9882 11.8232 10.9442 11.8232C10.8783 11.8232 10.8123 11.8013 10.7464 11.7574C10.4606 11.56 10.1748 11.2748 9.86698 10.9458C9.82301 10.9019 9.77904 10.8361 9.71309 10.7922C9.62515 10.6825 9.53721 10.5948 9.42728 10.4851C9.4053 10.4632 9.36133 10.4412 9.31736 10.3974C9.29537 10.3754 9.27339 10.3754 9.27339 10.3535C9.14148 10.2438 8.9656 10.178 8.78972 10.178C8.59186 10.178 8.39399 10.2657 8.28407 10.4193C8.06422 10.7045 8.13017 11.1432 8.43796 11.4064C8.45994 11.4064 8.45994 11.4283 8.48193 11.4283C8.5259 11.4503 8.54788 11.4941 8.59185 11.5161C8.72376 11.6038 8.83369 11.6696 8.9656 11.7354C9.03155 11.7574 9.09751 11.8013 9.16346 11.8451C9.55919 12.0864 9.88897 12.2838 10.1528 12.5251C10.2627 12.6348 10.2627 12.7445 10.2627 12.8542V12.898L10.4826 13.0955C10.4386 13.1613 10.3946 13.2051 10.3726 13.271C9.27339 15.0039 8.85567 17.0439 9.14148 19.062L8.85567 19.1498C8.85567 19.1717 8.83369 19.1717 8.83369 19.1936C8.78972 19.2814 8.72376 19.3691 8.59185 19.4349C8.26208 19.5446 7.86635 19.5885 7.40467 19.6324H7.38268C7.31673 19.6324 7.22879 19.6324 7.16283 19.6543C7.03092 19.6543 6.89901 19.6762 6.74512 19.6982C6.70115 19.6982 6.65718 19.7201 6.61321 19.7201C6.59122 19.7201 6.56924 19.7201 6.54725 19.742C6.15152 19.8298 5.90969 20.2027 5.97564 20.5537C6.0416 20.8608 6.3274 21.0582 6.67916 21.0582C6.74512 21.0582 6.78909 21.0582 6.85504 21.0363C6.87703 21.0363 6.89901 21.0363 6.89901 21.0143C6.94298 21.0143 6.98695 20.9924 7.03092 20.9924C7.18482 20.9485 7.29474 20.9046 7.42665 20.8388C7.49261 20.8169 7.55856 20.773 7.62452 20.7511H7.6465C8.06421 20.5975 8.43796 20.4659 8.78972 20.422H8.83369C8.9656 20.422 9.05354 20.4879 9.11949 20.5317C9.14148 20.5317 9.14148 20.5537 9.16346 20.5537L9.47125 20.5098C9.99889 22.133 11.0102 23.5808 12.3513 24.6337C12.6591 24.875 12.9669 25.0725 13.2966 25.2699L13.1647 25.555C13.1647 25.577 13.1867 25.577 13.1867 25.5989C13.2307 25.6867 13.2747 25.7963 13.2307 25.9499C13.0988 26.2789 12.9009 26.608 12.6591 26.9809V27.0028C12.6151 27.0686 12.5711 27.1125 12.5272 27.1783C12.4392 27.288 12.3733 27.3977 12.2853 27.5293C12.2633 27.5512 12.2414 27.5951 12.2194 27.639C12.2194 27.6609 12.1974 27.6828 12.1974 27.6828C12.0215 28.0557 12.1534 28.4725 12.4832 28.6261C12.5711 28.6699 12.6591 28.6919 12.747 28.6919C13.0108 28.6919 13.2747 28.5164 13.4066 28.2751C13.4066 28.2532 13.4286 28.2312 13.4286 28.2312C13.4505 28.1873 13.4725 28.1435 13.4945 28.1215C13.5605 27.968 13.5824 27.8583 13.6264 27.7267C13.6484 27.6609 13.6704 27.5951 13.6924 27.5293C13.8463 27.0906 13.9562 26.7396 14.1541 26.4325C14.242 26.3009 14.3519 26.2789 14.4399 26.2351C14.4618 26.2351 14.4618 26.2351 14.4838 26.2131L14.6377 25.928C15.6051 26.3009 16.6603 26.4983 17.7156 26.4983C18.3532 26.4983 19.0127 26.4325 19.6283 26.2789C20.024 26.1912 20.3978 26.0815 20.7715 25.9499L20.9034 26.1912C20.9254 26.1912 20.9254 26.1912 20.9474 26.2131C21.0573 26.2351 21.1453 26.2789 21.2332 26.4105C21.4091 26.7176 21.541 27.0906 21.6949 27.5073V27.5293C21.7169 27.5951 21.7389 27.6609 21.7609 27.7267C21.8048 27.8583 21.8268 27.9899 21.8928 28.1215C21.9148 28.1654 21.9367 28.1873 21.9587 28.2312C21.9587 28.2532 21.9807 28.2751 21.9807 28.2751C22.1126 28.5383 22.3764 28.6919 22.6403 28.6919C22.7282 28.6919 22.8161 28.6699 22.9041 28.6261C23.058 28.5383 23.1899 28.4067 23.2339 28.2312C23.2778 28.0557 23.2778 27.8583 23.1899 27.6828C23.1899 27.6609 23.1679 27.6609 23.1679 27.639C23.1459 27.5951 23.1239 27.5512 23.1019 27.5293C23.036 27.3977 22.9481 27.288 22.8601 27.1783C22.8161 27.1125 22.7722 27.0686 22.7282 27.0028V26.9809C22.4864 26.608 22.2665 26.2789 22.1566 25.9499C22.1126 25.7963 22.1566 25.7086 22.1786 25.5989C22.1786 25.577 22.2006 25.577 22.2006 25.555L22.0906 25.2918C23.2558 24.6118 24.2452 23.6466 24.9927 22.4621C25.3884 21.8479 25.6962 21.1679 25.916 20.4879L26.1798 20.5317C26.2018 20.5317 26.2018 20.5098 26.2238 20.5098C26.3118 20.4659 26.3777 20.4001 26.5096 20.4001H26.5536C26.9053 20.444 27.2791 20.5756 27.6968 20.7292H27.7188C27.7847 20.7511 27.8507 20.795 27.9167 20.8169C28.0486 20.8827 28.1585 20.9266 28.3124 20.9704C28.3564 20.9704 28.4003 20.9924 28.4443 20.9924C28.4663 20.9924 28.4883 20.9924 28.5103 21.0143C28.5762 21.0363 28.6202 21.0363 28.6861 21.0363C29.0159 21.0363 29.3017 20.8169 29.3897 20.5317C29.3897 20.2685 29.1478 19.9175 28.7521 19.8078ZM18.573 18.733L17.6057 19.1936L16.6384 18.733L16.3965 17.702L17.0561 16.8684H18.1333L18.7929 17.702L18.573 18.733ZM24.3111 16.4517C24.487 17.1975 24.531 17.9433 24.465 18.6672L21.1013 17.702C20.7935 17.6143 20.6176 17.3072 20.6836 17.0001C20.7056 16.9123 20.7496 16.8246 20.8155 16.7588L23.4757 14.3677C23.8494 14.982 24.1352 15.6839 24.3111 16.4517ZM22.4204 13.0516L19.5404 15.0916C19.2985 15.2452 18.9688 15.2013 18.7709 14.96C18.705 14.8942 18.683 14.8065 18.661 14.7187L18.4631 11.1432C19.9801 11.3187 21.3651 11.9987 22.4204 13.0516ZM16.0448 11.2529C16.2866 11.209 16.5065 11.1651 16.7483 11.1212L16.5504 14.631C16.5284 14.9381 16.2866 15.2013 15.9568 15.2013C15.8689 15.2013 15.759 15.1794 15.693 15.1355L12.769 13.0516C13.6704 12.1522 14.7916 11.538 16.0448 11.2529ZM11.7137 14.3677L14.3299 16.693C14.5718 16.8904 14.5938 17.2633 14.3959 17.5046C14.3299 17.5923 14.242 17.6581 14.1321 17.6801L10.7244 18.6672C10.5925 17.1755 10.9223 15.662 11.7137 14.3677ZM11.1201 20.3124L14.6157 19.7201C14.9015 19.6982 15.1654 19.8956 15.2313 20.1808C15.2533 20.3124 15.2533 20.422 15.2093 20.5317L13.8683 23.7563C12.6371 22.9666 11.6478 21.7601 11.1201 20.3124ZM19.1447 24.6776C18.639 24.7873 18.1333 24.8531 17.6057 24.8531C16.8362 24.8531 16.0887 24.7215 15.3852 24.5021L17.122 21.3653C17.2979 21.1679 17.5837 21.0801 17.8256 21.2117C17.9355 21.2776 18.0234 21.3653 18.0894 21.453L19.7822 24.5021C19.5843 24.5679 19.3645 24.6118 19.1447 24.6776ZM23.4317 21.6285C22.8821 22.506 22.1566 23.2079 21.3212 23.7563L19.9361 20.444C19.8702 20.1808 19.9801 19.8956 20.2439 19.764C20.3318 19.7201 20.4418 19.6982 20.5517 19.6982L24.0693 20.2904C23.9374 20.773 23.7175 21.2117 23.4317 21.6285Z" fill="#3D80CC"/>
</svg>
