<svg width="35" height="35" viewBox="0 0 35 35" fill="none" xmlns="http://www.w3.org/2000/svg">
<path fill-rule="evenodd" clip-rule="evenodd" d="M18.1313 6H4C3.46957 6 2.96086 6.21071 2.58579 6.58579C2.21071 6.96086 2 7.46957 2 8V34H30V19.3345C29.3641 19.5866 28.6946 19.7721 28 19.8822V32H22V18.8687C21.2709 18.4758 20.599 17.9904 20 17.4282V32H4V8H17.3324C17.5235 7.29762 17.7931 6.62761 18.1313 6ZM10 12H8V16H10V12ZM10 18H8V22H10V18ZM16 12H14V16H16V12ZM16 18H14V22H16V18ZM10 24H8V28H10V24ZM16 24H14V28H16V24Z" fill="#3D80CC"/>
<path d="M32.4375 9C32.6562 9 32.8594 9.03906 33.0469 9.11719C33.2344 9.19531 33.401 9.30469 33.5469 9.44531C33.6927 9.58594 33.8021 9.75 33.875 9.9375C33.9479 10.125 33.9896 10.3281 34 10.5469C34 10.75 33.9609 10.9479 33.8828 11.1406C33.8047 11.3333 33.6927 11.5026 33.5469 11.6484L27.9453 17.2656L25 18L25.7344 15.0547L31.3359 9.44531C31.4818 9.29948 31.651 9.1901 31.8438 9.11719C32.0365 9.04427 32.2344 9.00521 32.4375 9ZM32.8359 10.9453C32.9453 10.8359 33 10.7031 33 10.5469C33 10.3854 32.9479 10.2552 32.8438 10.1562C32.7396 10.0573 32.6042 10.0052 32.4375 10C32.3646 10 32.2943 10.0104 32.2266 10.0312C32.1589 10.0521 32.099 10.0911 32.0469 10.1484L26.6406 15.5703L26.375 16.625L27.4297 16.3594L32.8359 10.9453ZM23 9H22V8H23V9ZM30 9H24V8H30V9ZM22 11H23V12H22V11ZM23 6H22V5H23V6ZM30 6H24V5H30V6ZM21 15H24.4609L24.2109 16H20V2H32V7.80469C31.651 7.85677 31.3177 7.97135 31 8.14844V3H21V15ZM24 11H28.0156L27.0156 12H24V11Z" fill="#3D80CC"/>
</svg>
