<svg width="35" height="35" viewBox="0 0 35 35" fill="none" xmlns="http://www.w3.org/2000/svg">
<path d="M23.5723 21.4287V20.893C23.2764 20.893 23.0366 21.1328 23.0366 21.4287H23.5723ZM31.0723 31.7859V32.3216C31.3681 32.3216 31.608 32.0817 31.608 31.7859H31.0723ZM23.5723 31.7859H23.0366C23.0366 32.0817 23.2764 32.3216 23.5723 32.3216V31.7859ZM28.3937 21.4287L28.7858 21.0637C28.6844 20.9548 28.5424 20.893 28.3937 20.893V21.4287ZM31.0723 24.3057H31.608C31.608 24.1702 31.5567 24.0398 31.4644 23.9406L31.0723 24.3057ZM25.1794 28.9486C24.8835 28.9486 24.6437 29.1884 24.6437 29.4843C24.6437 29.7801 24.8835 30.02 25.1794 30.02V28.9486ZM29.4651 30.02C29.761 30.02 30.0008 29.7801 30.0008 29.4843C30.0008 29.1884 29.761 28.9486 29.4651 28.9486V30.02ZM25.1794 26.647C24.8835 26.647 24.6437 26.8868 24.6437 27.1827C24.6437 27.4785 24.8835 27.7184 25.1794 27.7184V26.647ZM28.3937 27.7184C28.6896 27.7184 28.9294 27.4785 28.9294 27.1827C28.9294 26.8868 28.6896 26.647 28.3937 26.647V27.7184ZM31.0723 31.2501H23.5723V32.3216H31.0723V31.2501ZM24.108 31.7859V21.4287H23.0366V31.7859H24.108ZM23.5723 21.9644H28.3937V20.893H23.5723V21.9644ZM30.5366 24.3057V31.7859H31.608V24.3057H30.5366ZM28.0016 21.7938L30.6802 24.6707L31.4644 23.9406L28.7858 21.0637L28.0016 21.7938ZM27.3223 21.4287V23.7303H28.3937V21.4287H27.3223ZM28.9294 25.4168H31.0723V24.3454H28.9294V25.4168ZM27.3223 23.7303C27.3223 24.625 28.0064 25.4168 28.9294 25.4168V24.3454C28.669 24.3454 28.3937 24.1067 28.3937 23.7303H27.3223ZM25.1794 30.02H29.4651V28.9486H25.1794V30.02ZM25.1794 27.7184H28.3937V26.647H25.1794V27.7184Z" fill="#3D80CC"/>
<path fill-rule="evenodd" clip-rule="evenodd" d="M18.958 29.2211V25.3737H19.9986V22.8088H7.41576C7.07563 22.8088 6.74943 22.6737 6.50892 22.4332C6.26841 22.1927 6.13329 21.8665 6.13329 21.5263V7.41918C6.13329 7.07905 6.26841 6.75285 6.50892 6.51234C6.74943 6.27183 7.07563 6.13671 7.41576 6.13671H27.9352C28.2754 6.13671 28.6016 6.27183 28.8421 6.51234C29.0826 6.75285 29.2177 7.07905 29.2177 7.41918V19.6429H31.7826V7.41918C31.7816 6.3991 31.3759 5.42109 30.6546 4.69978C29.9333 3.97847 28.9553 3.5728 27.9352 3.57178H7.41576C6.39568 3.5728 5.41767 3.97847 4.69636 4.69978C3.97506 5.42109 3.56938 6.3991 3.56836 7.41918V21.5263C3.56938 22.5464 3.97506 23.5244 4.69636 24.2457C5.41767 24.967 6.39568 25.3727 7.41576 25.3737H16.393V29.2211H12.5456V31.7861H19.9986V29.2211H18.958Z" fill="#3D80CC"/>
<path d="M22.0663 19.6429L19.9668 12.6L18.7755 17.4351L17.3396 14.1234H16.9765L15.4847 18.539L14.2155 14.0494L13.6298 15.2273H10V14.1234H12.9519L14.3878 10.8117L15.5593 14.9105L16.1867 13.0195H18.0175L18.5517 14.0936L19.8724 7.5L22.0663 16.3312L22.7684 14.1234H25.3571V15.2273H23.5582L22.0663 19.6429Z" fill="#3D80CC"/>
</svg>
