<svg width="35" height="35" viewBox="0 0 35 35" fill="none" xmlns="http://www.w3.org/2000/svg">
<path d="M28.5377 15.3621C26.8764 10.9759 22.6434 7.85693 17.685 7.85693C12.7266 7.85693 8.49358 10.9723 6.83231 15.3585C3.72377 16.1754 1.42773 19.0076 1.42773 22.3807C1.42773 26.3929 4.67411 29.6426 8.67857 29.6426H26.6769C30.6814 29.6426 33.9277 26.3929 33.9277 22.3807C33.9277 19.0149 31.639 16.1827 28.5377 15.3621ZM29.8544 25.5651C29.4381 25.9842 28.9429 26.3165 28.3975 26.5427C27.8521 26.769 27.2673 26.8847 26.6769 26.8831H8.67857C7.47796 26.8831 6.34989 26.4147 5.50112 25.5651C5.08237 25.1477 4.75041 24.6514 4.52441 24.1048C4.29841 23.5583 4.18286 22.9723 4.18443 22.3807C4.18443 21.3641 4.51451 20.4091 5.13477 19.6103C5.74217 18.8365 6.58317 18.2799 7.53237 18.0236L8.90709 17.6641L9.41127 16.3352C9.72321 15.5074 10.1585 14.734 10.7062 14.0332C11.2469 13.3386 11.8874 12.728 12.6069 12.2213C14.0977 11.172 15.8532 10.6165 17.685 10.6165C19.5167 10.6165 21.2723 11.172 22.7631 12.2213C23.4849 12.7297 24.1233 13.3397 24.6638 14.0332C25.2115 14.734 25.6468 15.511 25.9587 16.3352L26.4593 17.6605L27.8304 18.0236C29.7999 18.5501 31.171 20.3401 31.171 22.3807C31.171 23.5826 30.7031 24.7154 29.8544 25.5651Z" fill="#3D80CC"/>
<path d="M13.2148 14.6431V20.4181C13.2172 21.2631 13.4678 22.0903 13.9378 22.8043C14.4079 23.5184 15.0782 24.0902 15.8715 24.4538L17.8577 25.3574L19.8439 24.4529C20.6372 24.0893 21.3075 23.5175 21.7776 22.8035C22.2476 22.0894 22.4982 21.2622 22.5006 20.4172V14.6431H13.2148ZM20.6434 20.4181C20.6418 20.9249 20.4912 21.4209 20.2091 21.849C19.9271 22.2771 19.5249 22.6198 19.0491 22.8377L17.8577 23.3815L16.6663 22.8395C16.1902 22.6215 15.7879 22.2785 15.5058 21.85C15.2237 21.4216 15.0733 20.9252 15.072 20.4181V16.4288H20.6434V20.4181Z" fill="#3D80CC"/>
</svg>
