<svg width="35" height="35" viewBox="0 0 35 35" fill="none" xmlns="http://www.w3.org/2000/svg">
<path fill-rule="evenodd" clip-rule="evenodd" d="M8.2154 2.85742C5.84847 2.85742 3.92969 4.7762 3.92969 7.14313V22.1439C3.92969 23.9911 5.09834 25.5654 6.73662 26.1677C6.35773 25.5285 6.14021 24.7823 6.14021 23.9854V8.98465C6.14021 6.61772 8.05899 4.69894 10.4259 4.69894H22.296C22.8157 4.69894 23.3139 4.79146 23.7748 4.96091C23.0283 3.70165 21.6555 2.85742 20.0855 2.85742H8.2154Z" fill="#3D80CC"/>
<path fill-rule="evenodd" clip-rule="evenodd" d="M11.5279 5.62012C9.16097 5.62012 7.24219 7.53889 7.24219 9.90583V24.9066C7.24219 26.7538 8.41084 28.3281 10.0491 28.9303C9.67023 28.2912 9.45271 27.545 9.45271 26.7481V11.7473C9.45271 9.38041 11.3715 7.46164 13.7384 7.46164H25.6085C26.1282 7.46164 26.6264 7.55415 27.0873 7.7236C26.3408 6.46434 24.968 5.62012 23.398 5.62012H11.5279Z" fill="#3D80CC"/>
<rect x="11.9872" y="10.1791" width="17.5844" height="20.7151" rx="2.85714" stroke="#3D80CC" stroke-width="2.85714"/>
</svg>
