<svg width="35" height="35" viewBox="0 0 35 35" fill="none" xmlns="http://www.w3.org/2000/svg">
<g clip-path="url(#clip0_778_3118)">
<path fill-rule="evenodd" clip-rule="evenodd" d="M19.2866 9.0935C18.6503 8.98514 17.9965 8.92871 17.3295 8.92871C12.3711 8.92871 8.13811 12.0441 6.47684 16.4303C3.3683 17.2472 1.07227 20.0794 1.07227 23.4525C1.07227 27.4647 4.31864 30.7144 8.3231 30.7144H26.3214C30.3259 30.7144 33.5723 27.4647 33.5723 23.4525C33.5723 21.5735 32.859 19.8608 31.6892 18.5716H26.0431L26.1038 18.7323L27.4749 19.0954C29.4445 19.6219 30.8156 21.4119 30.8156 23.4525C30.8156 24.6544 30.3477 25.7872 29.4989 26.6369C29.0826 27.056 28.5875 27.3883 28.0421 27.6145C27.4966 27.8408 26.9118 27.9565 26.3214 27.9549H8.3231C7.12249 27.9549 5.99442 27.4865 5.14565 26.6369C4.7269 26.2195 4.39494 25.7232 4.16894 25.1766C3.94295 24.63 3.82739 24.0441 3.82896 23.4525C3.82896 22.4359 4.15904 21.4809 4.7793 20.6821C5.3867 19.9083 6.22771 19.3517 7.1769 19.0954L8.55162 18.7359L9.0558 17.407C9.36775 16.5791 9.80301 15.8057 10.3507 15.105C10.8914 14.4104 11.5319 13.7998 12.2514 13.2931C13.7422 12.2438 15.4978 11.6882 17.3295 11.6882C17.9949 11.6882 18.6503 11.7615 19.2866 11.9052V9.0935Z" fill="#3D80CC"/>
<path d="M24.8211 12.0001L26.4294 9.21436L28.0377 12.0001H24.8211Z" stroke="#3D80CC" stroke-width="6"/>
<path d="M17.5021 19.7098C17.1744 19.7098 16.8676 19.8394 16.6354 20.0764C16.4042 20.3133 16.276 20.6263 16.276 20.9604C16.276 21.2946 16.4042 21.6075 16.6354 21.8445C16.8676 22.0803 17.1744 22.2111 17.5021 22.2111C17.8297 22.2111 18.1365 22.0803 18.3688 21.8445C18.6 21.6075 18.7282 21.2946 18.7282 20.9604C18.7282 20.6263 18.6 20.3133 18.3688 20.0764C18.2553 19.9598 18.1203 19.8673 17.9715 19.8044C17.8227 19.7414 17.6631 19.7093 17.5021 19.7098V19.7098ZM22.0197 22.3418L21.3031 21.7171C21.3371 21.5047 21.3546 21.2879 21.3546 21.0722C21.3546 20.8565 21.3371 20.6385 21.3031 20.4273L22.0197 19.8025C22.0738 19.7553 22.1126 19.6923 22.1308 19.622C22.149 19.5518 22.1458 19.4775 22.1216 19.4091L22.1117 19.3801C21.9145 18.8176 21.619 18.2961 21.2395 17.8411L21.2198 17.8176C21.1737 17.7623 21.1123 17.7226 21.0437 17.7037C20.975 17.6847 20.9023 17.6874 20.8352 17.7114L19.9455 18.0344C19.6168 17.7595 19.2508 17.5427 18.8542 17.3918L18.6821 16.4429C18.6692 16.3714 18.6352 16.3057 18.5847 16.2544C18.5342 16.2031 18.4696 16.1686 18.3995 16.1557L18.3699 16.1501C17.8001 16.045 17.1996 16.045 16.6299 16.1501L16.6003 16.1557C16.5302 16.1686 16.4656 16.2031 16.4151 16.2544C16.3646 16.3057 16.3306 16.3714 16.3176 16.4429L16.1445 17.3963C15.7516 17.5483 15.3856 17.7646 15.0608 18.0367L14.1645 17.7114C14.0974 17.6872 14.0247 17.6844 13.956 17.7034C13.8873 17.7224 13.8259 17.7622 13.7799 17.8176L13.7602 17.8411C13.3814 18.2966 13.086 18.8179 12.888 19.3801L12.8781 19.4091C12.8288 19.5488 12.8694 19.7053 12.98 19.8025L13.7054 20.434C13.6714 20.6441 13.655 20.8587 13.655 21.0711C13.655 21.2857 13.6714 21.5003 13.7054 21.7081L12.9822 22.3396C12.9281 22.3869 12.8894 22.4498 12.8712 22.5201C12.853 22.5904 12.8562 22.6646 12.8803 22.733L12.8902 22.7621C13.0885 23.3243 13.3811 23.844 13.7624 24.3011L13.7821 24.3245C13.8282 24.3798 13.8896 24.4195 13.9583 24.4385C14.0269 24.4574 14.0996 24.4547 14.1667 24.4307L15.063 24.1055C15.3895 24.3793 15.7533 24.5961 16.1467 24.7459L16.3198 25.6992C16.3328 25.7707 16.3668 25.8365 16.4173 25.8878C16.4677 25.9391 16.5323 25.9735 16.6025 25.9865L16.6321 25.9921C17.2074 26.0977 17.7967 26.0977 18.3721 25.9921L18.4016 25.9865C18.4718 25.9735 18.5364 25.9391 18.5869 25.8878C18.6374 25.8365 18.6714 25.7707 18.6843 25.6992L18.8564 24.7504C19.253 24.5984 19.619 24.3827 19.9477 24.1077L20.8374 24.4307C20.9045 24.4549 20.9772 24.4577 21.0459 24.4388C21.1146 24.4198 21.176 24.38 21.222 24.3245L21.2417 24.3011C21.623 23.8417 21.9156 23.3243 22.1139 22.7621L22.1238 22.733C22.1709 22.5944 22.1304 22.4391 22.0197 22.3418ZM17.5021 22.9253C16.4381 22.9253 15.5758 22.0457 15.5758 20.9604C15.5758 19.8752 16.4381 18.9956 17.5021 18.9956C18.566 18.9956 19.4283 19.8752 19.4283 20.9604C19.4283 22.0457 18.566 22.9253 17.5021 22.9253Z" fill="#3D80CC"/>
</g>
<defs>
<clipPath id="clip0_778_3118">
<rect width="35" height="35" fill="white"/>
</clipPath>
</defs>
</svg>
