<?xml version="1.0" encoding="utf-8"?>
<!-- Generator: Adobe Illustrator 19.0.0, SVG Export Plug-In . SVG Version: 6.00 Build 0)  -->
<svg version="1.1" id="Layer_1" xmlns="http://www.w3.org/2000/svg" xmlns:xlink="http://www.w3.org/1999/xlink" x="0px" y="0px"
	 viewBox="-49 141 512 147.5" style="enable-background:new -49 141 512 147.5;" xml:space="preserve">
<style type="text/css">
	.st0{fill:#0089D6;}
</style>
<title>path21</title>
<g>
	<path class="st0" d="M39.1,280.6c24.5-4.3,44.7-7.9,44.9-7.9l0.4-0.1l-23.1-27.5c-12.7-15.1-23.1-27.5-23.1-27.6
		c0-0.1,23.9-65.8,24-66.1c0-0.1,16.3,27.9,39.3,67.9c21.6,37.4,39.4,68.3,39.6,68.6l0.3,0.5l-73.4,0l-73.4,0L39.1,280.6L39.1,280.6
		z M320.6,274c-11.2-0.7-17.7-7.1-19.4-19c-0.5-3.2-0.5-3.3-0.5-23.8l0-19.9h4.9h4.9l0,19.3c0,17.4,0.1,19.4,0.2,20.6
		c0.7,5,2,8.3,4.3,10.7c1.8,1.9,4,3,6.9,3.6c1.4,0.3,5.4,0.3,6.6,0c3-0.7,5.4-2,7.5-4.1c2.4-2.4,4.2-5.8,5.1-9.7l0.3-1.3l0-19.4
		l0-19.4h5h5V242v30.5h-5h-5v-4.8c0-3.3,0-4.8-0.1-4.8c-0.1,0-0.3,0.4-0.6,0.9c-1.7,3.1-4.6,6-7.7,7.7
		C329.6,273.6,325.8,274.3,320.6,274L320.6,274z M434,273.9c-3.9-0.3-8.1-1.7-11.5-3.8c-7.2-4.4-11.4-11.7-12.6-21.8
		c-0.4-3.5-0.5-8.1-0.1-11.1c0.8-6.6,3.4-13.1,7.1-17.7c0.9-1.2,3.1-3.3,4.3-4.3c3.2-2.6,6.9-4.3,10.9-5.2c2.3-0.5,6.4-0.7,8.9-0.5
		c6.2,0.6,11.8,3.5,15.7,8.1c3.9,4.7,6.1,11.2,6.3,19.2c0,1.3,0.1,3.5,0,4.9l-0.1,2.6l-21.6,0l-21.6,0v1c0,2.9,0.7,6.3,2,9.1
		c1.1,2.5,2.9,5.1,4.4,6.4c3.1,2.7,6.8,4.3,11,4.6c1.5,0.1,5.4,0,7.2-0.3c5-0.8,9.7-2.7,13.5-5.6c0.4-0.3,0.9-0.7,1-0.7
		c0.1-0.1,0.1,0.8,0.1,4.5l0,4.6l-1,0.6c-4.3,2.7-9.3,4.4-14.5,5C441.6,274,435.9,274.1,434,273.9L434,273.9z M452.9,235.2
		c0-4.9-2.1-10.4-5-13.2c-2.1-2-4.6-3.2-7.6-3.7c-1.4-0.2-4.4-0.1-5.9,0.2c-3.2,0.6-5.8,2-8.1,4.3c-2.4,2.4-4.2,5.3-5.4,8.6
		c-0.4,1.2-0.9,3.1-1,4.2l-0.1,0.5h16.6h16.6V235.2z M159.3,272.4c0-0.1,7.4-19.4,16.3-42.9l16.3-42.8h5.2h5.2l0.4,1.1
		c1.3,3.4,32.6,84.6,32.6,84.7c0,0-2.5,0-5.6,0l-5.6,0l-4.5-12l-4.5-12l-18.2,0l-18.2,0l-0.2,0.4c-0.1,0.2-2,5.6-4.3,12l-4.1,11.6
		l-5.6,0C160.4,272.5,159.2,272.5,159.3,272.4L159.3,272.4z M211.9,239.4c0,0-3-8.2-6.7-18.3c-6.9-18.8-7.3-19.9-7.9-22.9
		c-0.3-1.4-0.4-1.5-0.5-0.2c-0.1,0.9-0.6,3-0.9,4.1c-0.2,0.6-3.3,9.1-6.9,19.1c-3.6,9.9-6.6,18.1-6.6,18.1c0,0.1,6.7,0.1,14.8,0.1
		S211.9,239.4,211.9,239.4L211.9,239.4z M238.8,271v-1.6l18.1-24.9l18.1-24.9l-16.4-0.1l-16.4-0.1l0-4.2l0-4.2h23.7h23.7v1.4v1.4
		l-18.1,25c-9.9,13.7-18.1,25-18.1,25c0,0,8,0.1,17.9,0.1h17.9v4.2v4.2h-25.1h-25.1V271z M371.5,272.5c0,0-0.1-13.8-0.1-30.6v-30.6
		h4.9h4.9v6.3c0,3.5,0,6.3,0.1,6.3s0.3-0.6,0.5-1.3c1.1-3.2,3-6.1,5.5-8.5c2.2-2.1,4.8-3.4,7.8-3.9c0.8-0.1,1.6-0.2,3.3-0.1
		c2.1,0.1,3.2,0.2,4.5,0.6l0.4,0.1v5.1v5.1l-1.2-0.6c-2.1-1-4.1-1.4-6.5-1.3c-1.6,0.1-2.6,0.3-3.9,0.8c-2.6,1-4.7,2.7-6.2,5.1
		c-2.1,3.4-3.7,7.8-4.1,11.9c-0.1,0.7-0.1,6.6-0.1,18.3l0,17.2h-4.9C373.7,272.5,371.5,272.5,371.5,272.5L371.5,272.5z M-49,272.2
		c0,0,10.9-18.9,24.2-42l24.2-41.9l28.2-23.7c15.5-13,28.2-23.7,28.3-23.7c0.1,0-0.2,0.5-0.5,1.1s-14.1,30.2-30.6,65.6l-30.1,64.5
		l-21.9,0C-39.2,272.3-49,272.3-49,272.2L-49,272.2z"/>
</g>
</svg>
